<?xml version="1.0" encoding="UTF-8"?>
<!DOCTYPE svg PUBLIC "-//W3C//DTD SVG 1.1//EN" "http://www.w3.org/Graphics/SVG/1.1/DTD/svg11.dtd">
<!-- Creator: CorelDRAW 2018 (64-Bit) -->
<svg xmlns="http://www.w3.org/2000/svg" xml:space="preserve" width="6.25in" height="6.25in" version="1.1" style="shape-rendering:geometricPrecision; text-rendering:geometricPrecision; image-rendering:optimizeQuality; fill-rule:evenodd; clip-rule:evenodd"
viewBox="0 0 6250 6250"
 xmlns:xlink="http://www.w3.org/1999/xlink">
 <defs>
  <style type="text/css">
   <![CDATA[
    .str0 {stroke:#373435;stroke-width:6.94;stroke-miterlimit:2.61313}
    .fil8 {fill:#FEFEFE;fill-rule:nonzero}
    .fil15 {fill:#F89833;fill-rule:nonzero}
    .fil6 {fill:#EF5036;fill-rule:nonzero}
    .fil3 {fill:#F1F1F0;fill-rule:nonzero}
    .fil0 {fill:#C0DAF0;fill-rule:nonzero}
    .fil5 {fill:#B0D9E4;fill-rule:nonzero}
    .fil9 {fill:#A4DCE9;fill-rule:nonzero}
    .fil1 {fill:#A1CAEC;fill-rule:nonzero}
    .fil4 {fill:#74A1B6;fill-rule:nonzero}
    .fil13 {fill:#61C2C7;fill-rule:nonzero}
    .fil12 {fill:#4296AC;fill-rule:nonzero}
    .fil2 {fill:#497892;fill-rule:nonzero}
    .fil10 {fill:#36849E;fill-rule:nonzero}
    .fil7 {fill:#38505F;fill-rule:nonzero}
    .fil14 {fill:#29434C;fill-rule:nonzero}
    .fil11 {fill:#2B3A47;fill-rule:nonzero}
   ]]>
  </style>
 </defs>
 <g id="Layer_x0020_1">
  <metadata id="CorelCorpID_0Corel-Layer"/>
  <path class="fil0" d="M1929.02 2194.04c-72.57,-0.72 -144.83,-1.74 -216.83,-2.33 -96.32,-0.83 -192.06,-0.98 -286.46,0.87 -422.96,8.28 -845.89,33.16 -1268.94,44.73 111.41,-54.41 217.38,-123.32 304.28,-194 -103.8,-97.99 -57.63,-349.17 92.44,-387.59 153.17,-33.91 269.23,128.1 312.69,250.31 69.8,-103.96 148.56,-269.48 313.43,-231.79 102.7,27.18 165.33,127.85 164.15,228.46 118.73,-126.39 490.06,-24.6 429.89,184.48 46.45,40.32 98.94,76.2 155.35,106.86z"/>
  <path class="fil1" d="M4502.5 2715.1c50.44,-1.49 100.71,-3.18 150.76,-4.57 66.96,-1.89 133.54,-3.29 199.24,-3.29 294.28,0 588.76,11.54 883.17,13.83 -78.21,-36.32 -152.86,-82.81 -214.26,-130.76 70.85,-69.57 35.31,-243.63 -69.58,-268.31 -106.98,-21.5 -185.5,92.75 -214.07,178.33 -49.96,-71.35 -106.97,-185.41 -221.14,-156.93 -71.04,20.29 -113.24,91.15 -111.06,161.11 -84.28,-86.3 -341.17,-10.46 -296.47,134.15 -31.76,28.67 -67.78,54.35 -106.58,76.43z"/>
  <path class="fil1" d="M4511.15 1179.61c-107.39,-2.82 -214.22,-7.79 -318.14,-9.28 -19.61,-0.39 -38.96,-0.53 -58.32,-0.53 -331.58,0 -654.12,8.86 -985.69,8.86 -106.46,0 -213.03,-1.33 -318.96,-3.35 -88.03,-1.89 -175.65,-4.17 -262.63,-6.72 78.76,-5.92 155.1,-22.18 219.22,-63.72 -34.8,-104.01 73.64,-181.97 209.67,-193.93 -5.64,-118.02 42.61,-246.76 134.79,-287.75 206.06,-89.65 322.58,44.75 340.46,241.92 18.02,-331.57 430.1,-206.04 358.46,53.76 125.39,-62.78 340.41,-215.04 430.08,-26.89 20.29,43.56 21.9,87.91 11.57,130.78 63.83,71.92 145.68,122.58 239.49,156.85z"/>
  <path class="fil2" d="M5312.57 3467.31l-368.88 -83.13c6.44,-32.53 11.36,-64.53 17.2,-96.97l352.25 79.4c-2.09,33.14 -0.82,67.04 -0.57,100.7z"/>
  <path class="fil3" d="M5147.37 3661.56c1.6,-7.86 2.75,-15.9 4.6,-24.15 8.64,-44.18 28.6,-92.15 33.26,-138.76l36.97 8.35c63.75,14.39 131.9,39.64 197.18,44.74 0.72,55.74 -9.61,112.09 -21.53,166.3l-250.49 -56.46zm313.02 37.14c7.75,-64.83 3.8,-137.32 11.14,-205.04 -202.89,-50.35 -409.18,-93.97 -612.97,-128.97 -18.61,95.68 -35.43,191.13 -64.47,284.78 215.53,57.82 434.07,105.83 652.85,152.24 4.2,-34.25 8.54,-68.54 13.46,-103z"/>
  <path class="fil4" d="M5397.86 3718.02l-250.49 -56.46c1.6,-7.86 2.75,-15.9 4.6,-24.15 8.64,-44.18 28.6,-92.15 33.26,-138.76l36.97 8.35c63.75,14.39 131.9,39.64 197.18,44.74 0.72,55.74 -9.61,112.09 -21.53,166.3z"/>
  <path class="fil2" d="M5403.89 3873.43c64.63,4.54 130.46,2.65 196.26,-4.15 -46.7,160.09 -121.64,285.37 -325.56,318.64l-894.31 -226.02c-226.64,-42.9 -384.25,-102.85 -418.48,-330.61 -2.47,-24.31 -4.75,-49.36 -6.35,-74.89 139.67,-26.35 283.57,-12.37 423.82,15.65 194.85,39.06 374.93,132.68 561.33,198.92 151.21,53.64 302.78,91.1 463.28,102.46z"/>
  <path class="fil2" d="M5629.19 3754.6c-4.18,18.71 -8.5,37.09 -12.98,55.28 -14.07,1.49 -28.31,2.68 -42.42,3.67 -4.64,0.41 -9.26,0.72 -13.97,0.93l-0.92 0.06c-8.03,0.52 -16.08,0.89 -24.19,1.19 -1.93,0.2 -3.82,0.24 -5.6,0.26 -4.43,0.13 -8.82,0.28 -13.32,0.41 -4.44,0.24 -8.82,0.3 -13.32,0.35 -12.99,0.25 -26.04,0.31 -38.97,0.1 -4.39,-0.06 -8.76,-0.1 -13.04,-0.25 -5.85,-0.08 -11.7,-0.25 -17.56,-0.5 -5.64,-0.26 -11.18,-0.46 -16.82,-0.82 -3.75,-0.15 -7.6,-0.43 -11.33,-0.71 -5.27,-0.25 -10.6,-0.64 -15.78,-1.11 -7.72,-0.57 -15.49,-1.21 -23.14,-1.93 -12.39,-1.14 -24.75,-2.49 -36.99,-4l-4.58 -0.68c-5.87,-0.67 -11.74,-1.44 -17.68,-2.32 -12.79,-1.91 -25.56,-3.89 -38.28,-6.09 -9.25,-1.57 -18.44,-3.22 -27.75,-5.01 -9.21,-1.75 -18.4,-3.63 -27.58,-5.57 -12.85,-2.72 -25.69,-5.61 -38.37,-8.58 -6.83,-1.63 -13.58,-3.22 -20.32,-4.9 -5.17,-1.38 -10.26,-2.65 -15.46,-4 -6.13,-1.6 -12.26,-3.21 -18.29,-4.92 -5.94,-1.57 -11.97,-3.26 -17.9,-4.93 -9.29,-2.59 -18.57,-5.25 -27.82,-8.02 -12.32,-3.61 -24.61,-7.42 -36.79,-11.33l-0.11 -0.01 -3.12 -0.97c-9.21,-2.96 -18.33,-5.9 -27.46,-8.96 -5.14,-1.75 -10.26,-3.43 -15.28,-5.15 -5.15,-1.65 -10.18,-3.39 -15.28,-5.25l-1.72 -0.57c-158.43,-55.17 -311.97,-130.68 -472.96,-178.65 -3.35,-0.99 -6.69,-1.99 -9.96,-2.88 -26.64,-7.74 -53.43,-14.69 -80.53,-20.7 -150.44,-33.17 -308.1,-48.68 -458.85,-16.61 -0.83,-22.65 -0.99,-45.19 -0.38,-67.53 135.26,-33.65 278.2,-21.03 416.99,12.11 3.15,0.76 6.44,1.56 9.61,2.32 44.03,10.9 87.69,23.65 130.43,37.78 8.36,2.72 16.61,5.56 24.88,8.37 66.48,22.71 130.8,48 191.61,72.75 27.39,11.53 54.83,22.69 82.26,33.33 181.57,70.65 364.78,123.35 554.92,159.12 29.76,5.53 58.89,9.32 87.71,11.21 60.2,3.86 119,-0.87 178.41,-16.28z"/>
  <path class="fil5" d="M5616.26 3809.85c-5.07,20.24 -10.36,40.06 -16.11,59.43 -65.81,6.8 -131.64,8.69 -196.26,4.15 -160.5,-11.36 -312.07,-48.82 -463.28,-102.46 -186.4,-66.24 -366.48,-159.86 -561.33,-198.92 -140.25,-28.03 -284.15,-42 -423.82,-15.65 -1.26,-18.28 -2.25,-36.57 -2.75,-55.03 150.83,-32.01 308.46,-16.51 458.92,16.65 194.68,42.89 375.59,136.82 563.4,202.26 147.92,51.43 300.65,89.64 457.94,95.78 60.71,2.29 122.24,0.07 183.29,-6.22z"/>
  <path class="fil3" d="M5106.74 3861.39c-8.37,7.69 -20.26,12.47 -34.19,14.19 1.82,8.57 2.57,18.06 5.25,25.99 3.82,14.96 9.13,29.43 14.71,43.79 1.44,-0.08 3,-0.17 4.43,-0.26 25.47,-1.56 50.61,-21.43 66.09,-51.72 -19.6,-8.86 -39.46,-19.89 -56.28,-31.98zm-64.44 -90.81c-3.22,-24.47 -8.29,-48.9 -7.94,-73.18l-1.06 0.1 -0.67 0.04 -0.42 0.06c-44.63,1.87 -72.46,33.4 -84.99,72.85 18.7,8.04 37.25,16.6 56.15,24.8 8.28,-13.51 23.1,-23.17 38.92,-24.67zm-39.93 69.44c-13.79,12.28 -34.83,21.49 -56,28.56 1.03,3.68 2.33,7.25 3.65,10.74 11.22,28.76 33.53,46.44 60.89,56.2 5.32,-23.57 11.47,-46.86 20.47,-68.8 -12.18,-6.37 -22.93,-15.75 -29.01,-26.69zm139.44 -103.68c-7.2,-5.39 -17.53,-11.68 -29.22,-17.51 -4.92,21.72 -10.07,43.51 -16.25,64.97 7.03,4.5 12.61,10.29 15.65,16.96 1.97,4.29 3.57,8.35 4.7,12.31 20.76,-2.89 42.04,-5.63 63.26,-6.33 -1.82,-27.36 -12.19,-52.53 -38.14,-70.39z"/>
  <path class="fil6" d="M5002.36 3840.03c-13.79,12.28 -34.83,21.49 -56,28.56 -9.08,-30.44 -8.96,-66.79 0.86,-98.14 18.7,8.04 37.25,16.6 56.15,24.8 -5.43,8.86 -8.06,19.33 -6.22,30.27 0.72,5.01 2.48,9.87 5.21,14.51z"/>
  <path class="fil6" d="M5092.5 3945.36c-28.6,1.36 -57.18,-1.17 -81.6,-9.85 5.32,-23.57 11.47,-46.86 20.47,-68.8 13.15,7.1 27.92,10.7 39.78,9.07l1.39 -0.21c1.82,8.57 2.57,18.06 5.25,25.99 3.82,14.96 9.13,29.43 14.71,43.79z"/>
  <path class="fil6" d="M5174.96 3859.76c-2.67,12.18 -6.72,23.47 -11.94,33.61 -19.6,-8.86 -39.46,-19.89 -56.28,-31.98 11.63,-10.65 16.39,-26.89 9.94,-48.32 20.76,-2.89 42.04,-5.63 63.26,-6.33 1.11,17.31 -1.08,35.47 -4.99,53.03z"/>
  <path class="fil6" d="M5112.58 3718.83c-4.92,21.72 -10.07,43.51 -16.25,64.97 -11.6,-7.44 -27.22,-11.79 -42.54,-12.07l1.74 -0.26c-4.39,-1 -8.89,-1.28 -13.24,-0.89 -3.22,-24.47 -8.29,-48.9 -7.94,-73.18 21.71,-2.17 53.26,8.83 78.24,21.43z"/>
  <path class="fil3" d="M5391.52 3781.36c-14.26,0.3 -27.44,3.29 -37.89,10.08 -19.64,8.94 -35.94,24.17 -47.97,42.64 19.6,11.37 35.48,27.4 45.15,48.18 5.74,-6.83 13.17,-12.63 21.32,-17.02l0.39 -0.22c2.75,-2.26 6.11,-4.1 9.76,-5.46 5.4,-24.71 7.41,-51.85 9.24,-78.21zm-51.04 141.17c-18.36,6.89 -37.74,9.81 -57.19,11.9 3.89,22.97 14.58,43.7 33.28,58.09 12.18,9.28 25.81,16.56 40.22,21.57l14.29 -63.3c-14.32,-4.31 -26.49,-13.26 -30.6,-28.25zm165.1 32.46c-12.5,-6.36 -41.31,-14.2 -53.81,-26.93 -5.69,8.79 -14.56,14.94 -25.65,19.26 4.11,17.37 12.46,35.89 16.92,52.36 1.63,5.37 3.36,10.75 5.25,16.11 26.93,-9.14 50.44,-27.68 64.78,-56.69l0.18 -0.49c-2.58,-1.15 -5.17,-2.39 -7.67,-3.63zm-17.31 -147.51c-8.43,-4.68 -18.78,-9.39 -30.07,-13.43 -7.56,22.74 -15.33,45.36 -26.85,66.93 7.64,3 14.54,7.47 19.44,13.22 22.42,-12.93 47.68,-21.79 72.65,-31.26 -6.82,-14.15 -18.06,-26.48 -35.18,-35.46z"/>
  <path class="fil6" d="M5448.28 4015.79c-28.82,9.82 -61.7,8.86 -91.5,-1.71l14.29 -63.3c12.57,3.76 26.83,3.83 38.41,1.26 5.99,-1.25 11.57,-2.88 16.63,-4.72 4.11,17.37 12.46,35.89 16.92,52.36 1.63,5.37 3.36,10.75 5.25,16.11z"/>
  <path class="fil6" d="M5513.24 3958.61c-2.58,-1.15 -5.17,-2.39 -7.67,-3.63 -12.5,-6.36 -41.31,-14.2 -53.81,-26.93 6,-9.06 8.57,-20.92 6.85,-36.32 -0.82,-6.83 -3.71,-12.67 -7.82,-17.54 22.42,-12.93 47.68,-21.79 72.65,-31.26 17.08,35.25 6.4,81.79 -10.21,115.68z"/>
  <path class="fil6" d="M5338.97 3910.93c-0.03,4.21 0.5,8.13 1.5,11.6 -18.36,6.89 -37.74,9.81 -57.19,11.9 -5.64,-33.11 3.03,-70.86 22.37,-100.35 19.6,11.37 35.48,27.4 45.15,48.18 -7.21,8.5 -11.81,18.47 -11.83,28.67z"/>
  <path class="fil6" d="M5458.19 3794.04c-7.56,22.74 -15.33,45.36 -26.85,66.93 -15.79,-6.33 -35.13,-6.92 -49.07,-1.4 5.4,-24.71 7.41,-51.85 9.24,-78.21 21.64,-0.57 45.8,5.06 66.68,12.68z"/>
  <path class="fil7" d="M4509.4 3486.08c-42.74,-14.13 -86.4,-26.87 -130.43,-37.78 -3.17,-0.76 -6.46,-1.56 -9.61,-2.32 4.32,-13.61 6.06,-28.2 7.19,-43.26 -57.1,-5.41 -113.8,-59.07 -144.3,-108.03 1.37,-1.89 2.85,-3.76 4.41,-5.62 -2.72,0.09 -5.4,0.09 -8.19,-0.53 -2.13,-0.41 -4.25,-0.93 -6.42,-1.74 -18.18,-7.09 -27.32,-27.57 -20.22,-45.76 5.65,-14.71 20.03,-23.42 34.85,-22.63 -82.02,-142.52 -249.94,-288.2 -473.65,-374.49 244.52,79.02 425.04,246.6 506.14,394.67 7.52,-2.99 16.14,-3.32 24.24,-0.2 14.79,5.68 23.24,20.78 20.92,35.88l-1.03 0.75 0.68 0.69c30.44,31.32 71.26,45.65 114.83,43.53 2.36,-5.82 4.28,-12.7 5.61,-20.29 -40.44,-37.76 1.28,-115.5 56.67,-84.46l0.18 0.11c28.63,22.79 31.07,74.08 1.5,105.57 46.67,42.8 28.67,106.4 16.64,165.9z"/>
  <path class="fil7" d="M1966.6 1214.04c-241.44,-103.6 -569.58,-135.67 -799.26,14.39 -157.41,102.85 -212.89,309.14 -92.04,458.46 149.74,185.06 455.83,255.17 682.34,246.72 348.52,-12.98 647.21,-269.42 933.6,-438.5 328.17,-193.75 707.33,-335.09 1089.42,-359.8 158.82,-10.28 322,1.4 459.19,89.11 128.71,82.28 176.07,225.25 111.56,365.47 -48.82,106.09 -145.8,185.01 -238.98,251.17 -105.29,74.74 -218.83,138.54 -335.54,193.54 -112.87,53.19 -234.01,98.97 -358.98,111.21 -73.04,7.14 -227.25,-11.38 -231.97,-111.24 -0.02,5.68 -0.02,11.37 -0.03,17.06 11.69,-110.93 231.43,-133.88 313.15,-135.15 73.74,-1.15 147.07,32.07 196.43,86.54 68.31,75.36 46.69,200.73 8.93,285.32 -56.58,126.79 -196.83,224.26 -195.96,373.5 0.42,69.86 24.63,132.57 79.5,177.43 49.47,40.42 133.78,57.93 188.18,18.5 2.83,-2.06 -2.67,-15.44 0,-17.36 -126.03,91.33 -266.28,-69.22 -267.54,-189.08 -0.03,4.93 -0.04,9.87 -0.07,14.82 12.03,-153.68 156.14,-253.56 208.82,-391.71 25.48,-66.83 31.26,-158.3 11.37,-228.37 -33.53,-118.15 -172.81,-154.03 -279.94,-144.15 -79.13,7.29 -225.43,32.42 -260.18,117.42 -21.08,51.58 31.54,96.94 70.28,119.53 91.98,53.6 222.47,19.67 316.65,-8.22 230.37,-68.24 478.62,-200.1 654.41,-365.89 172.92,-163.08 226.96,-406.63 9.92,-557.68 -146.17,-101.72 -339.53,-98.98 -509.06,-85.53 -209.15,16.63 -413.72,74.85 -608.81,149.97 -183.12,70.52 -358.46,159.92 -524.98,263.44 -154.81,96.24 -304.87,199.93 -470.21,277.87 -137.22,64.72 -286.24,108.52 -438.81,103.52 -129.06,-4.25 -258.33,-36.33 -377.18,-85.83 -109.33,-45.54 -220.38,-115.64 -276.82,-223.29 -65.1,-124.14 11.11,-263.74 109.4,-343.93 218.27,-178.1 583.05,-134.93 823.22,-31.88 -1.99,-0.86 2.19,-16.42 0,-17.36z"/>
  <path class="fil7" d="M2222.76 3297.31c-26.48,4.47 -54.06,10.29 -83.63,17.22 -82.67,16.94 -255.96,117.06 -325.87,28.02 -97.48,-139.38 220.44,-101.16 292.5,-85.78 41.86,9.33 80.2,23.63 117,40.54z"/>
  <path class="fil7" d="M3605.1 2318.69c15.09,42.56 -76.21,122.82 -89.95,151.65 -14.52,23.28 -27,46.27 -35.29,70.02 -15.8,-60.85 -8.27,-145.61 20.41,-191.56 25.89,-30.31 83.73,-81.8 104.83,-30.11z"/>
  <path class="fil7" d="M3520.9 2028.37c31.78,70.99 -113.97,221.45 -133.57,272.85 -21.72,42.01 -39.98,83.21 -50.94,125.14 -35.53,-102.35 -34.29,-248.96 8.61,-331.8 40.26,-55.63 132.49,-152.04 175.91,-66.19z"/>
  <path class="fil7" d="M2544.72 2752.45c-78.58,-24.62 -153.36,-48.67 -235.85,-73.62 -85.3,-16.98 -261.21,-118.76 -57.74,-134.61 103.02,-11.81 222.57,100.37 293.58,208.23z"/>
  <path class="fil7" d="M2223.3 3421.7c-30.35,36.93 -59.55,71.94 -90.94,110.87 -27.7,42.21 -120.76,114.71 -84.99,1.78 16.05,-57.99 102.44,-97.92 175.93,-112.64z"/>
  <path class="fil8 str0" d="M2962.5 1489.24c159.75,326.78 139.33,722.31 61.85,1065.77 -42.43,198.69 -65.61,379.53 -37.54,554.48 15.95,100.09 48.64,198.24 104.3,296.48 -121.45,-43.99 -203.6,-160.94 -256.95,-295.29 -59.25,-148.87 -83.35,-319.18 -86.62,-435.17 2.23,-357.04 20.5,-734.76 -278.69,-992.31 -61.12,-52.95 -126.28,-82.85 -194.5,-101.45 -0.83,-16.51 -0.8,-33.1 -0.42,-49.89 -23.07,-9.2 -46.74,-14.48 -73.01,-15.01 -42.35,-0.66 -98.81,7.02 -146.38,4.64 11.54,10.98 24.39,20.76 37.56,29.93 -44.38,-4.69 -89.35,-9.11 -134.7,-15.63 -51.98,-6.17 -118.41,-0.68 -203.87,-7.69 -181.44,-104.57 -281.67,-247.61 -95.13,-277.02 -211.72,-14.59 -144.07,181.14 -21.21,260.05 -127.37,-30.16 -218.72,-50.45 -321.74,-105.55 -165.3,-66.71 -261.15,-89.63 -450.85,-109.71 105.56,-30.91 224.87,-30.96 340.06,-44.7 -68.93,-24.2 -139.73,-43.84 -211.85,-61.02 -194.03,-46.56 -398.83,-46.41 -601.83,-92.87 243.51,18.67 572.12,40 836.76,-17l0.27 -0.07c64.08,-33.36 124.97,-90.72 190.76,-117.17 62.59,-24.96 141.2,-42.92 193.24,-52.13 150.18,-26.54 297.36,-30.37 454.33,-17.85 23.5,1.75 46.99,4.13 70.37,7.56 173.84,24.17 343.56,91.96 488.88,195.19l0.08 0.09c31.12,21.93 60.93,45.49 89.57,70.67 101.97,89.33 187.2,198.25 247.29,322.69z"/>
  <path class="fil9" d="M1753.44 1528.04c-35.33,-2.9 -73.85,-8.01 -116.05,-16.93l-0.18 -0.04c-76.43,-48.99 -131.45,-143.22 -111.31,-203.96 3.03,-9.15 7.77,-17.52 14.39,-24.89 5.24,-5.82 11.64,-11 19.31,-15.41 21.88,-12.53 54.06,-18.79 98.57,-15.72 -42.58,6.74 -70.18,19.41 -85.27,36.18 -2.54,2.82 -4.7,5.77 -6.56,8.81 -23,37.98 7.28,92.75 68.23,147.55 32.19,28.95 72.91,57.92 118.86,84.4z"/>
  <path class="fil8" d="M1753.59 1528.05c-0.06,0 -0.1,-0.01 -0.15,-0 -45.95,-26.48 -86.68,-55.45 -118.86,-84.4 32.2,28.96 72.98,57.93 119.01,84.41zm-95.26 -276.94c-42.64,6.72 -70.3,19.39 -85.41,36.19 -2.54,2.82 -4.72,5.76 -6.57,8.8 1.86,-3.05 4.03,-6 6.56,-8.81 15.09,-16.78 42.69,-29.44 85.27,-36.18 0.06,-0 0.09,0.01 0.15,0.01zm-132.43 56.02c3.03,-9.15 7.75,-17.54 14.38,-24.91 5.24,-5.82 11.66,-10.98 19.33,-15.4 -7.67,4.41 -14.08,9.59 -19.31,15.41 -6.63,7.37 -11.37,15.74 -14.39,24.89z"/>
  <path class="fil3" d="M2273.88 1531.91c-0.39,16.76 -0.31,33.33 0.41,49.87 1.37,36.06 5.17,72.18 12.41,111.19 -37.44,-27.1 -71.87,-60.63 -109.31,-87.73 -27.74,-18.28 -57.68,-34.8 -85.25,-53.86 -13.28,-9.1 -26.02,-18.94 -37.65,-29.85 47.67,2.3 104.04,-5.3 146.37,-4.65 26.26,0.54 50.06,5.74 73.01,15.04z"/>
  <path class="fil10" d="M3029.46 3270.92c-0.68,-0.96 -1.35,-1.94 -2.01,-2.93 -18.92,-52.5 -32.15,-105.22 -40.64,-158.49 -28.07,-174.96 -4.89,-355.8 37.54,-554.48 77.48,-343.46 97.9,-738.99 -61.85,-1065.77 -60.08,-124.44 -145.31,-233.36 -247.29,-322.69 -28.64,-25.18 -58.45,-48.74 -89.57,-70.67l-0.08 -0.09c-145.32,-103.23 -315.04,-171.01 -488.88,-195.19 -7.56,-1.11 -15.13,-2.11 -22.7,-3 0.02,-0.11 0.04,-0.24 0.06,-0.35 7.88,0.92 15.74,1.94 23.6,3.11 173.83,24.16 343.53,91.96 488.87,195.18l0.09 0.1c31.08,21.93 60.91,45.5 89.56,70.65 101.95,89.31 187.2,198.27 247.31,322.71 159.72,326.73 139.3,722.29 61.81,1065.74 -42.4,198.74 -65.6,379.54 -37.51,554.51 8.58,54.33 22.2,108.07 41.69,161.67zm-936.26 -2375.55c-8.95,-0.87 -17.94,-1.65 -26.89,-2.32 -156.97,-12.52 -304.15,-8.69 -454.33,17.85 -27.96,4.95 -63.58,12.43 -100.28,22.16 37.04,-9.85 73.02,-17.41 101.22,-22.39 150.19,-26.55 297.37,-30.39 454.35,-17.86 8.65,0.65 17.32,1.37 25.98,2.21 -0.02,0.11 -0.04,0.21 -0.06,0.35z"/>
  <path class="fil11" d="M2113.98 897.61c-6.91,-0.84 -13.84,-1.57 -20.78,-2.24 0.02,-0.14 0.04,-0.24 0.06,-0.35 6.93,0.68 13.85,1.42 20.78,2.24 -0.02,0.11 -0.04,0.24 -0.06,0.35z"/>
  <path class="fil10" d="M1228.17 1080.13c-0.07,0.02 -0.11,0.06 -0.17,0.07l-0.27 0.07c-92.37,19.89 -192.57,30.25 -294.19,34.49 -0.34,-0.05 -0.67,-0.1 -1,-0.16 102.15,-4.15 202.79,-14.5 295.62,-34.48z"/>
  <path class="fil12" d="M3027.45 3267.99c-132.78,-194.62 -113.98,-639.65 -97.09,-851.19 17.16,-255.74 41.54,-519.39 -67.61,-754.37 -155.61,-335.3 -425.52,-476.86 -783.85,-552.51 -211.86,-43.54 -497.93,41.11 -707.31,52.11 -150.09,13.02 -291.62,-23.01 -438.06,-47.27 101.62,-4.24 201.81,-14.6 294.19,-34.49l0.27 -0.07c0.06,-0.01 0.1,-0.06 0.17,-0.07 0.15,-0.04 0.34,-0.07 0.51,-0.12l0.28 -0.05c64.07,-33.38 124.98,-90.71 190.74,-117.19 28.68,-11.43 60.71,-21.4 92.02,-29.71 36.69,-9.73 72.32,-17.2 100.28,-22.16 150.18,-26.54 297.36,-30.37 454.33,-17.85 8.95,0.67 17.94,1.44 26.89,2.32 6.93,0.67 13.87,1.4 20.78,2.24 7.57,0.89 15.15,1.9 22.7,3 173.84,24.17 343.56,91.96 488.88,195.19l0.08 0.09c31.12,21.93 60.93,45.49 89.57,70.67 101.97,89.33 187.2,198.25 247.29,322.69 159.75,326.78 139.33,722.31 61.85,1065.77 -42.43,198.69 -65.61,379.53 -37.54,554.48 8.5,53.27 21.72,106 40.64,158.49z"/>
  <path class="fil3" d="M2825.41 1113.56c-36.39,9.2 -75.39,32.74 -110.2,53 -28.64,-25.18 -58.45,-48.74 -89.57,-70.67 62.12,13.69 140.69,17.73 199.77,17.67z"/>
  <path class="fil13" d="M3639.81 3635.26c-41.12,-30.35 -87.33,-51.74 -145.01,-52.79 -113.13,-1.56 -253.13,11 -373.06,34.1 -0.99,53.64 -20.18,107.14 -59.24,176.25 -65.23,115.8 -179.81,216.67 -160.67,357.62 6.22,49.04 34.93,85.59 45.17,125.98 -200.15,-90.35 -306.94,-356.46 -324.9,-557.61 -18.54,-239.32 187.94,-390.34 212.03,-608.08 53.35,134.35 135.5,251.3 256.97,295.3 -55.56,-98.29 -88.39,-196.41 -104.31,-296.49 36.26,15.94 76.84,24.46 111.96,30.28 103.62,15.57 205.89,42.94 297.9,105.19 105.91,69.91 244.33,242.22 243.18,390.25z"/>
  <path class="fil14" d="M1442.12 1275.2c-0.71,0.79 -1.53,1.58 -2.43,2.36 -13.39,10.52 -70.25,-17.48 -81.07,-27.75 28.41,-25.89 106.55,-0.24 83.5,25.39z"/>
  <path class="fil13" d="M2379.48 1052.87c-84.57,-26.63 -225.47,-57.29 -296.26,-70.33 -151.72,-26.83 -303.8,-16.89 -452.64,-0.78 9.3,-21.66 19.7,-43.4 31.36,-65.17 78.17,-147.8 52.73,-177.21 166.95,-291.48 94.97,123.59 98.8,140.84 248.44,251.22l87.67 48.23c64.37,47.69 135.04,106 214.48,128.3z"/>
  <path class="fil15" d="M5723.61 1114.02c0,248.59 -201.54,450.14 -450.15,450.14 -248.58,0 -450.12,-201.54 -450.12,-450.14 0,-248.59 201.54,-450.13 450.12,-450.13 248.61,0 450.15,201.54 450.15,450.13z"/>
  <path class="fil7" d="M2510.75 4440.19c-0.13,26.86 0.88,55.02 2.64,85.34 2.53,84.35 71.49,272.22 -28.21,325.85 -154.02,72.16 -61.91,-234.51 -34.41,-302.87 16.36,-39.64 37.02,-74.97 59.98,-108.33z"/>
  <path class="fil7" d="M3744.78 3648.74c26.23,-5.78 53.48,-12.95 82.67,-21.34 81.73,-21.01 249.85,-129.58 324.09,-44.11 104.25,134.39 -215.17,111.94 -287.9,100.15 -42.27,-7.24 -81.28,-19.63 -118.86,-34.7z"/>
  <path class="fil7" d="M3189.91 4238.5c10.1,24.89 21.76,50.54 34.93,77.91 34.44,77.04 169.71,224.53 97.93,312.07 -114.96,125.35 -146.5,-193.3 -147.09,-266.98 0.04,-42.89 5.7,-83.42 14.24,-123z"/>
 </g>
</svg>
