<?xml version="1.0" encoding="UTF-8"?>
<!DOCTYPE svg PUBLIC "-//W3C//DTD SVG 1.1//EN" "http://www.w3.org/Graphics/SVG/1.1/DTD/svg11.dtd">
<!-- Creator: CorelDRAW 2018 (64-Bit) -->
<svg xmlns="http://www.w3.org/2000/svg" xml:space="preserve" width="6.25in" height="6.25in" version="1.1" style="shape-rendering:geometricPrecision; text-rendering:geometricPrecision; image-rendering:optimizeQuality; fill-rule:evenodd; clip-rule:evenodd"
viewBox="0 0 6250 6250"
 xmlns:xlink="http://www.w3.org/1999/xlink">
 <defs>
  <style type="text/css">
   <![CDATA[
    .str0 {stroke:#373435;stroke-width:6.94;stroke-miterlimit:2.61313}
    .fil7 {fill:#FEFEFE;fill-rule:nonzero}
    .fil0 {fill:#E6E7E8;fill-rule:nonzero}
    .fil14 {fill:#F89833;fill-rule:nonzero}
    .fil5 {fill:#EF5036;fill-rule:nonzero}
    .fil2 {fill:#F1F1F0;fill-rule:nonzero}
    .fil4 {fill:#B0D9E4;fill-rule:nonzero}
    .fil8 {fill:#A4DCE9;fill-rule:nonzero}
    .fil3 {fill:#74A1B6;fill-rule:nonzero}
    .fil12 {fill:#61C2C7;fill-rule:nonzero}
    .fil11 {fill:#4296AC;fill-rule:nonzero}
    .fil1 {fill:#497892;fill-rule:nonzero}
    .fil9 {fill:#36849E;fill-rule:nonzero}
    .fil6 {fill:#38505F;fill-rule:nonzero}
    .fil13 {fill:#29434C;fill-rule:nonzero}
    .fil10 {fill:#2B3A47;fill-rule:nonzero}
   ]]>
  </style>
 </defs>
 <g id="Layer_x0020_1">
  <metadata id="CorelCorpID_0Corel-Layer"/>
  <path class="fil0" d="M1981.04 2476.28c-70.42,-2.07 -140.54,-4.43 -210.42,-6.38 -93.47,-2.64 -186.39,-4.59 -278.06,-4.59 -410.69,0 -821.66,16.12 -1232.49,19.32 109.17,-50.7 213.33,-115.57 299.02,-182.52 -98.89,-97.08 -49.3,-340 97.09,-374.44 149.31,-30 258.88,129.44 298.75,248.89 69.72,-99.58 149.31,-258.74 308.61,-219.03 99.17,28.33 158.05,127.24 154.99,224.86 117.64,-120.42 476.12,-14.57 413.75,187.22 44.32,40.02 94.58,75.83 148.75,106.67z"/>
  <path class="fil0" d="M4502.5 2715.1c50.44,-1.49 100.71,-3.18 150.76,-4.57 66.96,-1.89 133.54,-3.29 199.24,-3.29 294.28,0 588.76,11.54 883.17,13.83 -78.21,-36.32 -152.86,-82.81 -214.26,-130.76 70.85,-69.57 35.31,-243.63 -69.58,-268.31 -106.98,-21.5 -185.5,92.75 -214.07,178.33 -49.96,-71.35 -106.97,-185.41 -221.14,-156.93 -71.04,20.29 -113.24,91.15 -111.06,161.11 -84.28,-86.3 -341.17,-10.46 -296.47,134.15 -31.76,28.67 -67.78,54.35 -106.58,76.43z"/>
  <path class="fil0" d="M4511.15 1179.61c-107.39,-2.82 -214.22,-7.79 -318.14,-9.28 -19.61,-0.39 -38.96,-0.53 -58.32,-0.53 -331.58,0 -654.12,8.86 -985.69,8.86 -106.46,0 -213.03,-1.33 -318.96,-3.35 -88.03,-1.89 -175.65,-4.17 -262.63,-6.72 78.76,-5.92 155.1,-22.18 219.22,-63.72 -34.8,-104.01 73.64,-181.97 209.67,-193.93 -5.64,-118.02 42.61,-246.76 134.79,-287.75 206.06,-89.65 322.58,44.75 340.46,241.92 18.02,-331.57 430.1,-206.04 358.46,53.76 125.39,-62.78 340.41,-215.04 430.08,-26.89 20.29,43.56 21.9,87.91 11.57,130.78 63.83,71.92 145.68,122.58 239.49,156.85z"/>
  <path class="fil1" d="M5312.57 3467.31l-368.88 -83.13c6.44,-32.53 11.36,-64.53 17.2,-96.97l352.25 79.4c-2.09,33.14 -0.82,67.04 -0.57,100.7z"/>
  <path class="fil2" d="M5147.37 3661.56c1.6,-7.86 2.75,-15.9 4.6,-24.15 8.64,-44.18 28.6,-92.15 33.26,-138.76l36.97 8.35c63.75,14.39 131.9,39.64 197.18,44.74 0.72,55.74 -9.61,112.09 -21.53,166.3l-250.49 -56.46zm313.02 37.14c7.75,-64.83 3.8,-137.32 11.14,-205.04 -202.89,-50.35 -409.18,-93.97 -612.97,-128.97 -18.61,95.68 -35.43,191.13 -64.47,284.78 215.53,57.82 434.07,105.83 652.85,152.24 4.2,-34.25 8.54,-68.54 13.46,-103z"/>
  <path class="fil3" d="M5397.86 3718.02l-250.49 -56.46c1.6,-7.86 2.75,-15.9 4.6,-24.15 8.64,-44.18 28.6,-92.15 33.26,-138.76l36.97 8.35c63.75,14.39 131.9,39.64 197.18,44.74 0.72,55.74 -9.61,112.09 -21.53,166.3z"/>
  <path class="fil1" d="M5403.89 3873.43c64.63,4.54 130.46,2.65 196.26,-4.15 -46.7,160.09 -121.64,285.37 -325.56,318.64l-894.31 -226.02c-226.64,-42.9 -384.25,-102.85 -418.48,-330.61 -2.47,-24.31 -4.75,-49.36 -6.35,-74.89 139.67,-26.35 283.57,-12.37 423.82,15.65 194.85,39.06 374.93,132.68 561.33,198.92 151.21,53.64 302.78,91.1 463.28,102.46z"/>
  <path class="fil1" d="M5629.19 3754.6c-4.18,18.71 -8.5,37.09 -12.98,55.28 -14.07,1.49 -28.31,2.68 -42.42,3.67 -4.64,0.41 -9.26,0.72 -13.97,0.93l-0.92 0.06c-8.03,0.52 -16.08,0.89 -24.19,1.19 -1.93,0.2 -3.82,0.24 -5.6,0.26 -4.43,0.13 -8.82,0.28 -13.32,0.41 -4.44,0.24 -8.82,0.3 -13.32,0.35 -12.99,0.25 -26.04,0.31 -38.97,0.1 -4.39,-0.06 -8.76,-0.1 -13.04,-0.25 -5.85,-0.08 -11.7,-0.25 -17.56,-0.5 -5.64,-0.26 -11.18,-0.46 -16.82,-0.82 -3.75,-0.15 -7.6,-0.43 -11.33,-0.71 -5.27,-0.25 -10.6,-0.64 -15.78,-1.11 -7.72,-0.57 -15.49,-1.21 -23.14,-1.93 -12.39,-1.14 -24.75,-2.49 -36.99,-4l-4.58 -0.68c-5.87,-0.67 -11.74,-1.44 -17.68,-2.32 -12.79,-1.91 -25.56,-3.89 -38.28,-6.09 -9.25,-1.57 -18.44,-3.22 -27.75,-5.01 -9.21,-1.75 -18.4,-3.63 -27.58,-5.57 -12.85,-2.72 -25.69,-5.61 -38.37,-8.58 -6.83,-1.63 -13.58,-3.22 -20.32,-4.9 -5.17,-1.38 -10.26,-2.65 -15.46,-4 -6.13,-1.6 -12.26,-3.21 -18.29,-4.92 -5.94,-1.57 -11.97,-3.26 -17.9,-4.93 -9.29,-2.59 -18.57,-5.25 -27.82,-8.02 -12.32,-3.61 -24.61,-7.42 -36.79,-11.33l-0.11 -0.01 -3.12 -0.97c-9.21,-2.96 -18.33,-5.9 -27.46,-8.96 -5.14,-1.75 -10.26,-3.43 -15.28,-5.15 -5.15,-1.65 -10.18,-3.39 -15.28,-5.25l-1.72 -0.57c-158.43,-55.17 -311.97,-130.68 -472.96,-178.65 -3.35,-0.99 -6.69,-1.99 -9.96,-2.88 -26.64,-7.74 -53.43,-14.69 -80.53,-20.7 -150.44,-33.17 -308.1,-48.68 -458.85,-16.61 -0.83,-22.65 -0.99,-45.19 -0.38,-67.53 135.26,-33.65 278.2,-21.03 416.99,12.11 3.15,0.76 6.44,1.56 9.61,2.32 44.03,10.9 87.69,23.65 130.43,37.78 8.36,2.72 16.61,5.56 24.88,8.37 66.48,22.71 130.8,48 191.61,72.75 27.39,11.53 54.83,22.69 82.26,33.33 181.57,70.65 364.78,123.35 554.92,159.12 29.76,5.53 58.89,9.32 87.71,11.21 60.2,3.86 119,-0.87 178.41,-16.28z"/>
  <path class="fil4" d="M5616.26 3809.85c-5.07,20.24 -10.36,40.06 -16.11,59.43 -65.81,6.8 -131.64,8.69 -196.26,4.15 -160.5,-11.36 -312.07,-48.82 -463.28,-102.46 -186.4,-66.24 -366.48,-159.86 -561.33,-198.92 -140.25,-28.03 -284.15,-42 -423.82,-15.65 -1.26,-18.28 -2.25,-36.57 -2.75,-55.03 150.83,-32.01 308.46,-16.51 458.92,16.65 194.68,42.89 375.59,136.82 563.4,202.26 147.92,51.43 300.65,89.64 457.94,95.78 60.71,2.29 122.24,0.07 183.29,-6.22z"/>
  <path class="fil2" d="M5106.74 3861.39c-8.37,7.69 -20.26,12.47 -34.19,14.19 1.82,8.57 2.57,18.06 5.25,25.99 3.82,14.96 9.13,29.43 14.71,43.79 1.44,-0.08 3,-0.17 4.43,-0.26 25.47,-1.56 50.61,-21.43 66.09,-51.72 -19.6,-8.86 -39.46,-19.89 -56.28,-31.98zm-64.44 -90.81c-3.22,-24.47 -8.29,-48.9 -7.94,-73.18l-1.06 0.1 -0.67 0.04 -0.42 0.06c-44.63,1.87 -72.46,33.4 -84.99,72.85 18.7,8.04 37.25,16.6 56.15,24.8 8.28,-13.51 23.1,-23.17 38.92,-24.67zm-39.93 69.44c-13.79,12.28 -34.83,21.49 -56,28.56 1.03,3.68 2.33,7.25 3.65,10.74 11.22,28.76 33.53,46.44 60.89,56.2 5.32,-23.57 11.47,-46.86 20.47,-68.8 -12.18,-6.37 -22.93,-15.75 -29.01,-26.69zm139.44 -103.68c-7.2,-5.39 -17.53,-11.68 -29.22,-17.51 -4.92,21.72 -10.07,43.51 -16.25,64.97 7.03,4.5 12.61,10.29 15.65,16.96 1.97,4.29 3.57,8.35 4.7,12.31 20.76,-2.89 42.04,-5.63 63.26,-6.33 -1.82,-27.36 -12.19,-52.53 -38.14,-70.39z"/>
  <path class="fil5" d="M5002.36 3840.03c-13.79,12.28 -34.83,21.49 -56,28.56 -9.08,-30.44 -8.96,-66.79 0.86,-98.14 18.7,8.04 37.25,16.6 56.15,24.8 -5.43,8.86 -8.06,19.33 -6.22,30.27 0.72,5.01 2.48,9.87 5.21,14.51z"/>
  <path class="fil5" d="M5092.5 3945.36c-28.6,1.36 -57.18,-1.17 -81.6,-9.85 5.32,-23.57 11.47,-46.86 20.47,-68.8 13.15,7.1 27.92,10.7 39.78,9.07l1.39 -0.21c1.82,8.57 2.57,18.06 5.25,25.99 3.82,14.96 9.13,29.43 14.71,43.79z"/>
  <path class="fil5" d="M5174.96 3859.76c-2.67,12.18 -6.72,23.47 -11.94,33.61 -19.6,-8.86 -39.46,-19.89 -56.28,-31.98 11.63,-10.65 16.39,-26.89 9.94,-48.32 20.76,-2.89 42.04,-5.63 63.26,-6.33 1.11,17.31 -1.08,35.47 -4.99,53.03z"/>
  <path class="fil5" d="M5112.58 3718.83c-4.92,21.72 -10.07,43.51 -16.25,64.97 -11.6,-7.44 -27.22,-11.79 -42.54,-12.07l1.74 -0.26c-4.39,-1 -8.89,-1.28 -13.24,-0.89 -3.22,-24.47 -8.29,-48.9 -7.94,-73.18 21.71,-2.17 53.26,8.83 78.24,21.43z"/>
  <path class="fil2" d="M5391.52 3781.36c-14.26,0.3 -27.44,3.29 -37.89,10.08 -19.64,8.94 -35.94,24.17 -47.97,42.64 19.6,11.37 35.48,27.4 45.15,48.18 5.74,-6.83 13.17,-12.63 21.32,-17.02l0.39 -0.22c2.75,-2.26 6.11,-4.1 9.76,-5.46 5.4,-24.71 7.41,-51.85 9.24,-78.21zm-51.04 141.17c-18.36,6.89 -37.74,9.81 -57.19,11.9 3.89,22.97 14.58,43.7 33.28,58.09 12.18,9.28 25.81,16.56 40.22,21.57l14.29 -63.3c-14.32,-4.31 -26.49,-13.26 -30.6,-28.25zm165.1 32.46c-12.5,-6.36 -41.31,-14.2 -53.81,-26.93 -5.69,8.79 -14.56,14.94 -25.65,19.26 4.11,17.37 12.46,35.89 16.92,52.36 1.63,5.37 3.36,10.75 5.25,16.11 26.93,-9.14 50.44,-27.68 64.78,-56.69l0.18 -0.49c-2.58,-1.15 -5.17,-2.39 -7.67,-3.63zm-17.31 -147.51c-8.43,-4.68 -18.78,-9.39 -30.07,-13.43 -7.56,22.74 -15.33,45.36 -26.85,66.93 7.64,3 14.54,7.47 19.44,13.22 22.42,-12.93 47.68,-21.79 72.65,-31.26 -6.82,-14.15 -18.06,-26.48 -35.18,-35.46z"/>
  <path class="fil5" d="M5448.28 4015.79c-28.82,9.82 -61.7,8.86 -91.5,-1.71l14.29 -63.3c12.57,3.76 26.83,3.83 38.41,1.26 5.99,-1.25 11.57,-2.88 16.63,-4.72 4.11,17.37 12.46,35.89 16.92,52.36 1.63,5.37 3.36,10.75 5.25,16.11z"/>
  <path class="fil5" d="M5513.24 3958.61c-2.58,-1.15 -5.17,-2.39 -7.67,-3.63 -12.5,-6.36 -41.31,-14.2 -53.81,-26.93 6,-9.06 8.57,-20.92 6.85,-36.32 -0.82,-6.83 -3.71,-12.67 -7.82,-17.54 22.42,-12.93 47.68,-21.79 72.65,-31.26 17.08,35.25 6.4,81.79 -10.21,115.68z"/>
  <path class="fil5" d="M5338.97 3910.93c-0.03,4.21 0.5,8.13 1.5,11.6 -18.36,6.89 -37.74,9.81 -57.19,11.9 -5.64,-33.11 3.03,-70.86 22.37,-100.35 19.6,11.37 35.48,27.4 45.15,48.18 -7.21,8.5 -11.81,18.47 -11.83,28.67z"/>
  <path class="fil5" d="M5458.19 3794.04c-7.56,22.74 -15.33,45.36 -26.85,66.93 -15.79,-6.33 -35.13,-6.92 -49.07,-1.4 5.4,-24.71 7.41,-51.85 9.24,-78.21 21.64,-0.57 45.8,5.06 66.68,12.68z"/>
  <path class="fil6" d="M4509.4 3486.08c-42.74,-14.13 -86.4,-26.87 -130.43,-37.78 -3.17,-0.76 -6.46,-1.56 -9.61,-2.32 4.32,-13.61 6.06,-28.2 7.19,-43.26 -57.1,-5.41 -113.8,-59.07 -144.3,-108.03 1.37,-1.89 2.85,-3.76 4.41,-5.62 -2.72,0.09 -5.4,0.09 -8.19,-0.53 -2.13,-0.41 -4.25,-0.93 -6.42,-1.74 -18.18,-7.09 -27.32,-27.57 -20.22,-45.76 5.65,-14.71 20.03,-23.42 34.85,-22.63 -82.02,-142.52 -249.94,-288.2 -473.65,-374.49 244.52,79.02 425.04,246.6 506.14,394.67 7.52,-2.99 16.14,-3.32 24.24,-0.2 14.79,5.68 23.24,20.78 20.92,35.88l-1.03 0.75 0.68 0.69c30.44,31.32 71.26,45.65 114.83,43.53 2.36,-5.82 4.28,-12.7 5.61,-20.29 -40.44,-37.76 1.28,-115.5 56.67,-84.46l0.18 0.11c28.63,22.79 31.07,74.08 1.5,105.57 46.67,42.8 28.67,106.4 16.64,165.9z"/>
  <path class="fil6" d="M1966.6 1214.04c-241.44,-103.6 -569.58,-135.67 -799.26,14.39 -157.41,102.85 -212.89,309.14 -92.04,458.46 149.74,185.06 455.83,255.17 682.34,246.72 348.52,-12.98 647.21,-269.42 933.6,-438.5 328.17,-193.75 707.33,-335.09 1089.42,-359.8 158.82,-10.28 322,1.4 459.19,89.11 128.71,82.28 176.07,225.25 111.56,365.47 -48.82,106.09 -145.8,185.01 -238.98,251.17 -105.29,74.74 -218.83,138.54 -335.54,193.54 -112.87,53.19 -234.01,98.97 -358.98,111.21 -73.04,7.14 -227.25,-11.38 -231.97,-111.24 -0.02,5.68 -0.02,11.37 -0.03,17.06 11.69,-110.93 231.43,-133.88 313.15,-135.15 73.74,-1.15 147.07,32.07 196.43,86.54 68.31,75.36 46.69,200.73 8.93,285.32 -56.58,126.79 -196.83,224.26 -195.96,373.5 0.42,69.86 24.63,132.57 79.5,177.43 49.47,40.42 133.78,57.93 188.18,18.5 2.83,-2.06 -2.67,-15.44 0,-17.36 -126.03,91.33 -266.28,-69.22 -267.54,-189.08 -0.03,4.93 -0.04,9.87 -0.07,14.82 12.03,-153.68 156.14,-253.56 208.82,-391.71 25.48,-66.83 31.26,-158.3 11.37,-228.37 -33.53,-118.15 -172.81,-154.03 -279.94,-144.15 -79.13,7.29 -225.43,32.42 -260.18,117.42 -21.08,51.58 31.54,96.94 70.28,119.53 91.98,53.6 222.47,19.67 316.65,-8.22 230.37,-68.24 478.62,-200.1 654.41,-365.89 172.92,-163.08 226.96,-406.63 9.92,-557.68 -146.17,-101.72 -339.53,-98.98 -509.06,-85.53 -209.15,16.63 -413.72,74.85 -608.81,149.97 -183.12,70.52 -358.46,159.92 -524.98,263.44 -154.81,96.24 -304.87,199.93 -470.21,277.87 -137.22,64.72 -286.24,108.52 -438.81,103.52 -129.06,-4.25 -258.33,-36.33 -377.18,-85.83 -109.33,-45.54 -220.38,-115.64 -276.82,-223.29 -65.1,-124.14 11.11,-263.74 109.4,-343.93 218.27,-178.1 583.05,-134.93 823.22,-31.88 -1.99,-0.86 2.19,-16.42 0,-17.36z"/>
  <path class="fil6" d="M1347.92 2787.15c-15.48,-12.29 -32.24,-24.52 -50.59,-37.29 -49.97,-36.91 -190.06,-82.46 -175.75,-164.56 28.3,-121.96 163.88,70.85 190.93,117.86 15.5,27.5 26.55,55.53 35.41,83.99z"/>
  <path class="fil6" d="M2563.98 3061.97c-15.86,29.21 -104.73,18.75 -127.28,25.42 -19.89,3.51 -38.61,8 -55.69,15.15 25.53,-38.6 75.62,-76.21 114.89,-83.13 29.33,-0.75 85.99,5.56 68.08,42.56z"/>
  <path class="fil6" d="M2681.43 2872.97c-23.21,52.33 -177.3,46.64 -215.08,61.21 -33.68,8.79 -65.22,19.08 -93.57,33.72 38.53,-69.83 119.37,-141.32 185.83,-158.62 50.26,-5.35 148.43,-2.33 122.82,63.69z"/>
  <path class="fil6" d="M1804.61 2695.15c-25.21,-55.13 -48.86,-107.89 -75.8,-165.32 -32.7,-55.04 -63.59,-201.42 45.25,-97.86 57.18,50.57 54.63,171.22 30.56,263.18z"/>
  <path class="fil6" d="M1280.11 2848.68c-35.15,1.57 -68.69,2.82 -105.44,4.8 -36.74,5.61 -122.22,-9.62 -42.81,-45.64 39.64,-19.76 104.02,7.86 148.25,40.83z"/>
  <path class="fil7 str0" d="M2701.61 2301.97c-100.21,248.29 -326.74,431.82 -552.85,558.48 -129.63,74.59 -240.01,150.92 -321.94,252.41 -46.93,58 -84.56,124.21 -110.92,203.03 -35.71,-88.13 -12.14,-190.65 35.13,-285.99 52.31,-105.71 133.65,-202.74 195.53,-261.62 196.5,-174.53 412.22,-350.47 405.9,-641 -1.11,-59.52 -16.82,-109.89 -40.22,-156.39 8.63,-8.58 17.72,-16.74 27.1,-24.79 -6.32,-17.15 -15.08,-32.71 -27.72,-47.35 -20.48,-23.5 -52.48,-50.62 -74.59,-77.83 -0.33,11.72 0.64,23.57 2.11,35.29 -19.28,-26.6 -39,-53.39 -57.75,-81.42 -22.21,-31.48 -57.92,-65.14 -96.15,-115.36 -32.08,-150.78 -3.14,-276.04 104.78,-188.43 -96.24,-123.06 -170.06,10.32 -152.76,116.4 -46.19,-84.56 -80.06,-144.54 -100.61,-228.04 -44.86,-123.31 -79.5,-187.04 -161.89,-300.75 68.87,42.56 127.64,107.83 191.86,164.11 -20.68,-49.64 -44.79,-98.06 -70.89,-145.98 -70.03,-129.11 -170.93,-241.13 -245.43,-375.1 109.65,142.46 259.74,332.81 421.2,449.58l0.17 0.11c49.8,18.65 111.17,23.74 158.03,46.72 44.47,21.97 93,56.15 123.65,80.1 88.46,69.13 163,147.79 233.42,239.86 10.61,13.72 20.87,27.75 30.5,42.23 72.35,107.04 118.79,233.3 133.83,363.64l-0.01 0.09c3.32,27.82 5.09,55.74 5.41,83.81 1.31,99.78 -16.35,200.04 -54.87,294.18z"/>
  <path class="fil8" d="M2085.21 1659.36c-15.81,-20.76 -31.97,-44.36 -47.86,-71.85l-0.07 -0.11c-10.81,-65.94 13.68,-142.44 56.83,-161.32 6.5,-2.85 13.42,-4.37 20.71,-4.37 5.76,0 11.75,0.96 17.94,2.98 17.63,5.81 36.89,20.33 57.13,46.21 -24.65,-19.98 -45.17,-28.86 -61.78,-28.86 -2.79,0 -5.47,0.26 -8.06,0.75 -32.11,6.11 -47.18,49.64 -47.17,109.97 0,31.86 4.19,68.42 12.32,106.6z"/>
  <path class="fil7" d="M2085.28 1659.44c-0.03,-0.03 -0.04,-0.06 -0.07,-0.08 -8.13,-38.18 -12.32,-74.74 -12.32,-106.6 0,31.87 4.22,68.46 12.39,106.68zm104.68 -188.46c-24.67,-20.03 -45.22,-28.93 -61.85,-28.93 -2.79,0 -5.47,0.25 -8.06,0.74 2.58,-0.48 5.26,-0.75 8.06,-0.75 16.61,0 37.13,8.87 61.78,28.86 0.03,0.03 0.04,0.06 0.07,0.08zm-95.85 -44.9c6.5,-2.85 13.42,-4.39 20.71,-4.39 5.76,0 11.75,0.97 17.94,3 -6.19,-2.03 -12.18,-2.98 -17.94,-2.98 -7.29,0 -14.21,1.53 -20.71,4.37z"/>
  <path class="fil2" d="M2339.28 1946.1c-9.36,8.04 -18.39,16.24 -27.09,24.78 -19.07,18.5 -36.96,38.36 -54.75,61.53 -3.6,-33.83 -2.19,-69.18 -5.79,-103.01 -3.65,-24.18 -9.35,-48.7 -12.49,-73.17 -1.56,-11.75 -2.44,-23.57 -2.19,-35.3 22.21,27.22 54.11,54.33 74.6,77.82 12.64,14.64 21.5,30.22 27.71,47.36z"/>
  <path class="fil9" d="M1759.47 3215.67c0.19,-0.85 0.4,-1.69 0.61,-2.54 19.42,-36.2 41.76,-69.39 66.74,-100.26 81.93,-101.49 192.32,-177.82 321.94,-252.41 226.11,-126.67 452.64,-310.19 552.85,-558.48 38.53,-94.14 56.18,-194.4 54.87,-294.18 -0.32,-28.07 -2.09,-55.98 -5.41,-83.81l0.01 -0.09c-15.04,-130.35 -61.48,-256.6 -133.83,-363.64 -3.11,-4.68 -6.3,-9.32 -9.53,-13.9 0.07,-0.04 0.15,-0.1 0.22,-0.14 3.37,4.76 6.68,9.57 9.92,14.44 72.35,107.03 118.78,233.28 133.83,363.64l-0.01 0.1c3.3,27.8 5.08,55.74 5.42,83.79 1.3,99.76 -16.36,200.06 -54.88,294.21 -100.19,248.25 -326.74,431.79 -552.85,558.44 -129.64,74.62 -240.01,150.93 -321.94,252.43 -25.51,31.44 -48.22,65.35 -67.96,102.4zm839.25 -1681.79c-3.93,-5.33 -7.93,-10.63 -11.97,-15.86 -70.42,-92.07 -144.96,-170.74 -233.42,-239.86 -16.47,-12.86 -38.1,-28.68 -61.49,-43.97 23.63,15.42 45.47,31.39 62.08,44.37 88.46,69.13 163.02,147.79 233.43,239.87 3.9,5.06 7.78,10.15 11.58,15.31 -0.07,0.04 -0.14,0.08 -0.22,0.14z"/>
  <path class="fil10" d="M2607.72 1546.35c-2.94,-4.19 -5.96,-8.35 -9,-12.47 0.09,-0.06 0.15,-0.09 0.22,-0.14 3.04,4.13 6.04,8.28 9,12.47 -0.07,0.04 -0.15,0.1 -0.22,0.14z"/>
  <path class="fil9" d="M2071.78 1151.39c-0.04,-0.03 -0.09,-0.03 -0.13,-0.06l-0.17 -0.11c-56.36,-40.76 -111.35,-90.5 -163.69,-144.03 -0.14,-0.21 -0.28,-0.41 -0.4,-0.62 52.56,53.86 107.76,103.85 164.39,144.82z"/>
  <path class="fil11" d="M1760.08 3213.13c41.15,-168.47 293.97,-377.25 418.06,-472.14 148.42,-116.5 304.71,-232.94 379.58,-408.35 106.91,-250.22 51.52,-467.62 -83.47,-700.97 -80.46,-137.39 -267.61,-252.28 -376.7,-361.46 -81.01,-75.74 -130.96,-170.93 -189.76,-263.02 52.35,53.53 107.33,103.26 163.69,144.03l0.17 0.11c0.04,0.03 0.08,0.03 0.13,0.06 0.09,0.07 0.2,0.15 0.32,0.22l0.17 0.13c49.81,18.64 111.17,23.75 158.03,46.71 20.37,10.07 41.6,22.69 61.56,35.74 23.39,15.29 45.02,31.11 61.49,43.97 88.46,69.13 163,147.79 233.42,239.86 4.04,5.23 8.04,10.53 11.97,15.86 3.04,4.13 6.06,8.28 9,12.47 3.24,4.58 6.42,9.22 9.53,13.9 72.35,107.04 118.79,233.3 133.83,363.64l-0.01 0.09c3.32,27.82 5.09,55.74 5.41,83.81 1.31,99.78 -16.35,200.04 -54.87,294.18 -100.21,248.29 -326.74,431.82 -552.85,558.48 -129.63,74.59 -240.01,150.92 -321.94,252.41 -24.97,30.87 -47.32,64.07 -66.74,100.26z"/>
  <path class="fil2" d="M2839.74 2042.02c-22.94,-15.39 -55.03,-25.14 -83.25,-34.22 -0.32,-28.07 -2.09,-55.98 -5.41,-83.81 23.08,40.74 59.56,85.72 88.67,118.03z"/>
  <path class="fil12" d="M1860.52 3729.06c-3.63,-37.44 -14.67,-73.26 -42.49,-105.35 -54.83,-62.68 -130.63,-133.13 -202.31,-187.39 -29.85,25.86 -68.57,41.7 -125.62,54.33 -95.49,21.3 -207.09,8.25 -274.81,88.11 -23.78,27.54 -29.65,61.25 -46.72,86.74 -49.08,-154.02 44,-343.46 145.24,-452.31 121.85,-127.96 306.15,-89.29 437.17,-183.29 -47.26,95.33 -70.83,197.86 -35.12,286 26.44,-78.79 63.98,-145.06 110.92,-203.04 9.12,27.69 24.44,54.09 38.54,76.18 42.49,64.37 77.85,133.82 89.07,214.82 13.87,92.37 -12.29,252.96 -93.87,325.19z"/>
  <path class="fil13" d="M2070.33 1364.52c-0.78,0 -1.61,-0.06 -2.49,-0.17 -12.35,-2.15 -25.01,-47.06 -24.72,-58.03 28.15,2.81 52.58,58.2 27.21,58.2z"/>
  <path class="fil12" d="M2653.44 1768.08c-27.06,-59.39 -79.64,-151.6 -107.35,-196.76 -60,-96.25 -140.31,-174.58 -222.39,-248.11 16.43,-5.57 33.44,-10.58 51.1,-14.92 119.37,-29.97 122.94,-58.37 241.71,-52.11 -20.89,112.82 -28.44,123.4 -15.2,259.64l16.76 71.72c5.58,58.7 8.46,126.08 35.36,180.54z"/>
  <path class="fil14" d="M5723.61 1114.02c0,248.59 -201.54,450.14 -450.15,450.14 -248.58,0 -450.12,-201.54 -450.12,-450.14 0,-248.59 201.54,-450.13 450.12,-450.13 248.61,0 450.15,201.54 450.15,450.13z"/>
  <path class="fil6" d="M864.19 3507.37c-14.76,13.15 -29.67,27.56 -45.41,43.45 -44.92,42.91 -113.8,173.13 -192.22,144.96 -115.31,-48.77 97.87,-149.32 148.82,-167.92 29.75,-10.56 59.26,-16.65 88.81,-20.5z"/>
  <path class="fil6" d="M1904.81 3793.15c16.07,11.51 33.41,22.89 52.37,34.74 51.73,34.39 193.91,72.96 183.67,155.66 -22.23,123.21 -167.18,-62.65 -196.53,-108.27 -16.84,-26.7 -29.26,-54.15 -39.52,-82.13z"/>
  <path class="fil6" d="M1308.9 3779.78c-8.65,17.78 -16.95,36.79 -25.45,57.47 -25.21,56.78 -39.34,203.41 -122.59,207.21 -125.2,-1.21 33.67,-175.33 73.71,-211.93 23.49,-21.09 48.46,-37.94 74.33,-52.76z"/>
 </g>
</svg>
