<?xml version="1.0" encoding="UTF-8"?>
<!DOCTYPE svg PUBLIC "-//W3C//DTD SVG 1.1//EN" "http://www.w3.org/Graphics/SVG/1.1/DTD/svg11.dtd">
<!-- Creator: CorelDRAW 2018 (64-Bit) -->
<svg xmlns="http://www.w3.org/2000/svg" xml:space="preserve" width="11in" height="8.55999in" version="1.1" style="shape-rendering:geometricPrecision; text-rendering:geometricPrecision; image-rendering:optimizeQuality; fill-rule:evenodd; clip-rule:evenodd"
viewBox="0 0 11000 8559.99"
 xmlns:xlink="http://www.w3.org/1999/xlink">
 <defs>
  <style type="text/css">
   <![CDATA[
    .fil0 {fill:#074FA3}
   ]]>
  </style>
 </defs>
 <g id="Layer_x0020_1">
  <metadata id="CorelCorpID_0Corel-Layer"/>
  <g id="_1460687430368">
   <path class="fil0" d="M1396.59 123.34c-135.08,20.66 -386.17,109.65 -524.43,189.11 -138.26,79.46 -308.3,228.84 -419.54,370.28 -77.87,98.53 -92.17,122.37 -168.45,276.52 -109.65,224.08 -168.45,586.41 -114.42,724.67 65.16,171.63 270.16,271.75 440.2,216.13 68.33,-23.84 185.94,-133.49 216.13,-203.42 12.71,-28.6 28.6,-114.42 38.14,-190.7 28.6,-268.57 179.58,-492.65 406.83,-600.71 408.42,-195.47 864.52,-23.84 1040.91,392.53l36.55 87.41 9.54 1509.73c9.54,1622.56 7.94,1579.65 96.94,1994.43 98.53,462.45 316.25,996.42 548.27,1342.86 50.85,74.69 109.65,163.69 131.91,197.06 22.25,31.78 89,119.19 150.97,193.88 446.56,540.32 990.06,950.33 1592.36,1199.83 346.44,144.61 621.37,220.89 1061.58,295.59 174.81,28.61 905.83,28.61 1088.59,-1.59 495.83,-79.46 869.28,-197.06 1295.19,-405.24 414.78,-205 705.6,-417.96 1080.65,-794.59 588,-589.59 936.03,-1239.56 1118.79,-2083.42 57.21,-260.63 98.53,-756.45 66.75,-802.54 -14.3,-20.66 -295.59,-25.43 -2309.09,-33.37 -2468.01,-9.54 -2409.2,-6.35 -2905.04,-93.76 -901.07,-160.51 -1565.35,-538.73 -1930.86,-1104.48 -220.9,-340.08 -327.37,-680.17 -359.16,-1150.57 -31.79,-481.52 -128.72,-750.09 -371.87,-1026.61 -336.91,-382.99 -831.15,-570.52 -1317.44,-499l-0 0zm2286.84 3955.48c265.39,200.24 478.34,314.66 765.99,411.59 452.92,150.98 856.57,203.42 1684.54,219.31l495.83 9.54 9.54 49.26c20.66,101.71 125.54,437.02 185.94,597.53 34.96,92.17 114.42,266.98 177.99,389.35 214.54,414.78 441.79,721.49 794.59,1071.11 128.72,127.14 232.02,232.02 232.02,235.2 0,12.71 -265.39,130.31 -402.06,177.99 -414.78,144.62 -648.39,182.76 -1139.45,182.76 -330.55,1.59 -419.54,-4.77 -588,-33.37 -589.59,-103.3 -1123.56,-351.21 -1605.08,-742.15 -133.49,-108.07 -400.48,-373.46 -451.33,-448.15 -17.48,-27.02 -61.98,-89 -98.53,-135.08 -257.45,-338.5 -487.88,-840.68 -583.23,-1269.76 -58.8,-262.22 -76.28,-433.85 -89,-874.06 -6.35,-214.54 -17.48,-402.06 -25.42,-419.54 -6.36,-15.89 96.94,81.05 232.02,214.54 135.08,135.08 316.25,298.77 403.66,363.93l-0 0zm6126.31 669.04c0,52.44 -60.39,273.34 -117.6,432.26 -170.04,470.4 -457.69,923.31 -812.07,1277.7 -98.53,98.53 -190.7,179.58 -205,179.58 -46.09,0 -201.83,-127.13 -398.89,-324.19 -349.62,-351.21 -616.61,-759.63 -791.41,-1210.96 -55.62,-141.44 -122.37,-346.44 -122.37,-373.46 0,-7.95 514.89,-14.3 1223.67,-14.3l1223.67 0 0 33.37 -0 0z"/>
   <path class="fil0" d="M3905.91 4533.33c-87.41,31.79 -208.18,154.15 -238.38,243.15 -12.71,38.14 -23.84,108.07 -23.84,152.56 0,73.1 -6.36,87.41 -57.21,136.67 -171.63,162.09 -174.81,398.88 -6.35,543.5 179.58,154.15 405.24,123.96 405.24,-52.44 0,-71.51 -49.26,-133.49 -130.31,-168.45 -68.33,-28.61 -73.1,-42.91 -36.55,-89 19.07,-25.43 54.03,-44.5 93.76,-50.85 44.5,-6.35 76.28,-25.43 112.83,-68.33 44.5,-49.27 49.26,-66.75 42.91,-120.78 -4.76,-36.55 -25.43,-79.46 -50.85,-104.89 -68.33,-73.1 -19.07,-130.31 81.05,-93.76 114.42,41.31 235.2,-38.14 235.2,-154.15 0,-149.39 -233.61,-243.15 -427.49,-173.22l0 -0z"/>
   <path class="fil0" d="M4787.91 4822.56c-116.01,44.5 -166.87,77.87 -238.38,157.33 -89,98.53 -152.56,238.38 -166.87,354.39 -14.3,127.13 38.14,306.71 116.01,398.89l55.62 65.16 -42.91 89c-89,187.52 -111.24,368.69 -63.57,526.02 17.48,63.57 47.67,108.06 114.42,176.4 76.28,77.87 108.06,96.94 200.24,125.54 189.11,58.8 363.93,39.73 446.56,-46.09 68.33,-71.52 63.57,-146.21 -12.71,-216.13 -57.21,-54.03 -60.39,-54.03 -206.59,-54.03 -197.06,0 -217.72,-17.48 -217.72,-179.58 0,-98.53 6.36,-125.54 49.26,-198.65 33.37,-58.8 65.16,-92.17 101.71,-108.06 114.42,-47.67 144.61,-176.4 63.57,-260.63 -25.43,-25.43 -60.39,-50.85 -77.87,-55.62 -84.23,-23.84 -150.98,-61.98 -166.87,-96.94 -41.32,-92.17 -4.77,-262.21 71.51,-325.78 14.3,-11.12 79.46,-25.43 144.62,-31.79 100.12,-7.94 125.54,-15.89 160.51,-52.44 58.8,-57.21 60.39,-163.69 4.77,-222.48 -69.93,-74.69 -206.59,-92.17 -335.32,-44.5l0 0.01z"/>
   <path class="fil0" d="M5967.08 4865.47c-131.91,28.61 -212.95,77.87 -325.78,195.47 -147.79,155.74 -212.95,336.91 -197.06,551.45 15.89,216.13 90.58,368.69 241.56,489.47 46.09,36.56 95.35,73.11 109.65,82.64 23.84,14.3 22.25,25.43 -7.94,119.19 -47.67,147.79 -57.21,390.94 -22.25,524.43 36.55,139.85 95.35,244.73 185.93,325.78 93.76,84.22 163.69,117.6 292.41,139.85 181.17,31.79 475.17,-41.32 554.63,-135.08 58.8,-69.93 54.03,-144.62 -14.3,-212.95 -61.98,-61.98 -90.58,-65.16 -228.84,-22.25 -120.78,38.14 -287.65,41.32 -351.21,7.94 -27.02,-12.71 -60.39,-54.03 -81.05,-95.35 -31.79,-65.16 -34.96,-92.17 -28.61,-259.04 6.35,-216.13 27.02,-266.98 147.79,-389.35 69.93,-68.33 74.69,-79.46 66.75,-133.49 -15.89,-96.94 -68.33,-133.49 -203.42,-147.79 -66.75,-6.36 -146.21,-25.43 -181.17,-42.91 -155.74,-81.05 -198.65,-352.8 -81.05,-526.02 57.21,-85.81 125.54,-130.31 228.84,-147.79 92.17,-17.48 177.99,-100.12 177.99,-171.63 0,-57.21 -54.03,-125.54 -120.78,-154.15 -30.2,-12.71 -55.62,-22.25 -57.21,-20.66 -3.18,0 -50.85,11.12 -104.88,22.25l0 -0z"/>
   <path class="fil0" d="M8403.31 5041.87c-79.46,28.61 -192.29,136.67 -232.02,220.9 -66.75,143.03 -19.07,360.75 98.53,459.28 181.17,154.15 403.66,144.62 565.75,-23.84 157.33,-165.28 154.15,-398.89 -7.94,-559.39 -117.6,-116.01 -274.93,-150.98 -424.31,-96.94l0 0z"/>
  </g>
 </g>
</svg>
