<?xml version="1.0" encoding="UTF-8"?>
<!DOCTYPE svg PUBLIC "-//W3C//DTD SVG 1.1//EN" "http://www.w3.org/Graphics/SVG/1.1/DTD/svg11.dtd">
<!-- Creator: CorelDRAW 2018 (64-Bit) -->
<svg xmlns="http://www.w3.org/2000/svg" xml:space="preserve" width="21.0967in" height="3.81666in" version="1.1" style="shape-rendering:geometricPrecision; text-rendering:geometricPrecision; image-rendering:optimizeQuality; fill-rule:evenodd; clip-rule:evenodd"
viewBox="0 0 21096.66 3816.66"
 xmlns:xlink="http://www.w3.org/1999/xlink">
 <defs>
  <style type="text/css">
   <![CDATA[
    .fil0 {fill:#074FA3}
   ]]>
  </style>
 </defs>
 <g id="Layer_x0020_1">
  <metadata id="CorelCorpID_0Corel-Layer"/>
  <g id="_2425834406192">
   <path class="fil0" d="M702.75 289.94c-51.87,7.93 -148.28,42.11 -201.37,72.61 -53.09,30.51 -118.38,87.87 -161.09,142.18 -29.9,37.83 -35.39,46.98 -64.68,106.17 -42.1,86.04 -64.68,225.17 -43.93,278.25 25.02,65.9 103.73,104.35 169.02,82.99 26.24,-9.15 71.39,-51.26 82.99,-78.11 4.88,-10.98 10.98,-43.93 14.65,-73.22 10.98,-103.12 68.95,-189.16 156.21,-230.65 156.82,-75.06 331.95,-9.15 399.68,150.72l14.04 33.56 3.66 579.69c3.66,623.01 3.05,606.54 37.22,765.8 37.83,177.57 121.43,382.59 210.52,515.62 19.53,28.68 42.11,62.85 50.65,75.67 8.54,12.2 34.17,45.76 57.97,74.44 171.47,207.46 380.15,364.9 611.42,460.7 133.02,55.53 238.59,84.81 407.61,113.5 67.12,10.98 347.81,10.98 417.99,-0.61 190.38,-30.51 333.78,-75.67 497.31,-155.6 159.26,-78.72 270.93,-160.48 414.94,-305.1 225.78,-226.39 359.41,-475.96 429.58,-799.97 21.96,-100.07 37.83,-290.46 25.63,-308.15 -5.49,-7.93 -113.5,-9.76 -886.62,-12.81 -947.64,-3.66 -925.06,-2.44 -1115.45,-36 -345.98,-61.63 -601.05,-206.86 -741.39,-424.09 -84.82,-130.58 -125.7,-261.17 -137.91,-441.78 -12.2,-184.89 -49.43,-288.01 -142.78,-394.19 -129.37,-147.06 -319.14,-219.06 -505.86,-191.6l0 0zm878.07 1518.79c101.91,76.88 183.67,120.82 294.12,158.04 173.91,57.97 328.9,78.11 646.81,84.21l190.38 3.66 3.67 18.91c7.93,39.06 48.2,167.81 71.39,229.44 13.43,35.39 43.94,102.51 68.34,149.5 82.38,159.26 169.64,277.03 305.1,411.27 49.43,48.82 89.09,89.09 89.09,90.31 0,4.88 -101.91,50.04 -154.38,68.34 -159.26,55.53 -248.96,70.17 -437.52,70.17 -126.92,0.61 -161.09,-1.83 -225.77,-12.81 -226.39,-39.67 -431.41,-134.85 -616.3,-284.96 -51.26,-41.49 -153.77,-143.4 -173.3,-172.07 -6.71,-10.37 -23.8,-34.17 -37.83,-51.87 -98.85,-129.97 -187.33,-322.8 -223.94,-487.55 -22.57,-100.68 -29.29,-166.58 -34.17,-335.61 -2.44,-82.37 -6.71,-154.38 -9.76,-161.09 -2.44,-6.1 37.22,31.12 89.09,82.38 51.87,51.87 121.43,114.72 154.99,139.74l-0 0zm2352.32 256.89c0,20.14 -23.19,104.96 -45.15,165.98 -65.29,180.62 -175.74,354.53 -311.81,490.6 -37.83,37.83 -73.22,68.95 -78.71,68.95 -17.7,0 -77.5,-48.81 -153.16,-124.48 -134.24,-134.85 -236.76,-291.67 -303.88,-464.97 -21.36,-54.31 -46.99,-133.02 -46.99,-143.4 0,-3.05 197.7,-5.49 469.85,-5.49l469.85 0 0 12.81 0 0z"/>
   <path class="fil0" d="M1666.26 1983.25c-33.56,12.2 -79.94,59.19 -91.53,93.36 -4.88,14.65 -9.15,41.5 -9.15,58.58 0,28.07 -2.44,33.56 -21.96,52.48 -65.9,62.24 -67.12,153.16 -2.44,208.69 68.95,59.19 155.6,47.59 155.6,-20.14 0,-27.46 -18.91,-51.26 -50.04,-64.68 -26.24,-10.98 -28.07,-16.48 -14.04,-34.17 7.32,-9.76 20.75,-17.08 36,-19.52 17.08,-2.44 29.29,-9.76 43.32,-26.24 17.09,-18.91 18.92,-25.63 16.48,-46.37 -1.83,-14.04 -9.76,-30.51 -19.53,-40.27 -26.24,-28.07 -7.32,-50.04 31.12,-36 43.93,15.87 90.31,-14.65 90.31,-59.19 0,-57.36 -89.7,-93.36 -164.14,-66.51l0 0z"/>
   <path class="fil0" d="M2004.92 2094.3c-44.55,17.09 -64.07,29.9 -91.53,60.41 -34.17,37.83 -58.58,91.53 -64.07,136.07 -5.49,48.81 14.65,117.77 44.54,153.16l21.36 25.02 -16.48 34.17c-34.17,72 -42.71,141.57 -24.41,201.98 6.71,24.41 18.3,41.49 43.93,67.73 29.29,29.9 41.49,37.22 76.89,48.2 72.61,22.58 139.74,15.25 171.46,-17.7 26.24,-27.46 24.41,-56.14 -4.88,-82.99 -21.97,-20.75 -23.19,-20.75 -79.33,-20.75 -75.67,0 -83.6,-6.71 -83.6,-68.95 0,-37.83 2.44,-48.2 18.91,-76.27 12.81,-22.58 25.02,-35.39 39.06,-41.5 43.93,-18.3 55.53,-67.73 24.41,-100.07 -9.76,-9.76 -23.19,-19.53 -29.9,-21.36 -32.34,-9.15 -57.97,-23.8 -64.07,-37.22 -15.87,-35.39 -1.83,-100.69 27.46,-125.09 5.49,-4.27 30.51,-9.76 55.53,-12.2 38.44,-3.05 48.2,-6.1 61.63,-20.14 22.58,-21.97 23.19,-62.85 1.83,-85.43 -26.85,-28.68 -79.33,-35.39 -128.75,-17.09l0 0z"/>
   <path class="fil0" d="M2457.69 2110.78c-50.65,10.98 -81.77,29.9 -125.09,75.06 -56.75,59.8 -81.77,129.36 -75.67,211.74 6.1,82.99 34.78,141.57 92.75,187.94 17.7,14.04 36.61,28.07 42.1,31.73 9.15,5.49 8.54,9.76 -3.05,45.76 -18.3,56.75 -21.96,150.11 -8.54,201.37 14.04,53.7 36.61,93.97 71.39,125.09 36,32.34 62.85,45.15 112.28,53.7 69.56,12.2 182.45,-15.87 212.96,-51.87 22.58,-26.85 20.75,-55.53 -5.49,-81.77 -23.8,-23.8 -34.78,-25.02 -87.87,-8.54 -46.38,14.65 -110.45,15.87 -134.85,3.05 -10.37,-4.88 -23.19,-20.74 -31.12,-36.61 -12.2,-25.02 -13.43,-35.39 -10.98,-99.46 2.44,-82.99 10.37,-102.52 56.75,-149.5 26.85,-26.24 28.68,-30.51 25.63,-51.26 -6.1,-37.22 -26.24,-51.26 -78.11,-56.75 -25.63,-2.44 -56.14,-9.76 -69.56,-16.48 -59.8,-31.12 -76.28,-135.46 -31.12,-201.98 21.97,-32.95 48.2,-50.04 87.87,-56.75 35.39,-6.71 68.34,-38.44 68.34,-65.9 0,-21.96 -20.75,-48.2 -46.38,-59.19 -11.59,-4.88 -21.35,-8.54 -21.96,-7.93 -1.22,0 -19.53,4.27 -40.27,8.54l0 0z"/>
   <path class="fil0" d="M3393.12 2178.51c-30.51,10.98 -73.83,52.48 -89.09,84.82 -25.63,54.92 -7.32,138.52 37.83,176.35 69.56,59.19 154.99,55.53 217.23,-9.15 60.41,-63.46 59.19,-153.16 -3.05,-214.79 -45.16,-44.54 -105.57,-57.97 -162.93,-37.22l0 0z"/>
  </g>
  <g id="_2425834403312">
   <path class="fil0" d="M11372.07 510.71c-30.05,30.05 -39.3,80.9 -39.3,231.15 0,261.2 6.93,265.81 312.05,265.81 305.11,0 312.05,-4.63 312.05,-265.81 0,-221.9 -32.36,-282 -136.38,-251.95 -32.36,6.93 -69.34,13.87 -83.21,11.56 -224.21,-30.05 -330.54,-27.74 -365.21,9.24z"/>
   <path class="fil0" d="M12534.73 637.84c-41.61,41.61 -46.23,76.28 -46.23,300.49l0 254.26 -101.7 0c-143.31,0 -175.67,39.29 -175.67,219.59 0,180.3 32.36,219.59 171.05,219.59l99.39 0 11.56 527.01c9.24,462.3 13.87,536.26 55.48,614.85 57.78,120.19 131.75,168.74 286.62,198.79 152.56,30.05 381.39,9.24 427.62,-39.29 48.54,-46.23 46.23,-291.24 -2.31,-339.78 -20.8,-20.8 -73.96,-36.98 -127.13,-36.98 -127.13,0 -136.38,-39.3 -136.38,-522.39l0 -402.19 113.26 0c157.18,0 187.23,-34.67 187.23,-219.59 0,-184.91 -30.05,-219.59 -187.23,-219.59l-113.26 0 0 -263.51c0,-330.54 -4.63,-337.48 -245.01,-337.48 -141,0 -180.3,9.24 -217.28,46.23l0 -0.01z"/>
   <path class="fil0" d="M5514.81 1190.28c-64.72,20.8 -161.8,69.34 -212.66,101.7 -87.84,57.78 -94.77,60.09 -94.77,18.49 0,-101.7 -53.17,-117.89 -369.83,-117.89 -360.59,0 -369.83,4.63 -369.83,219.59 0,171.05 32.36,219.59 152.56,219.59l78.59 0 0 450.74 0 450.74 -78.59 0c-120.19,0 -152.56,48.54 -152.56,219.59 0,221.91 -4.63,219.59 485.41,219.59 490.03,0 485.41,2.31 485.41,-219.59 0,-171.05 -32.36,-219.59 -152.56,-219.59l-78.59 0 0 -353.66c0,-386.02 11.56,-423 138.69,-490.03 83.21,-43.92 277.37,-43.92 335.16,-2.31 53.17,39.29 76.28,203.41 78.59,573.24l2.31 272.76 -90.15 0c-131.75,0 -164.11,43.92 -164.11,219.59 0,221.91 -4.63,219.59 485.41,219.59 490.03,0 485.41,2.31 485.41,-219.59 0,-171.05 -32.36,-219.59 -152.56,-219.59l-78.59 0 0 -381.39 0 -379.09 99.39 -60.09c76.28,-43.92 134.07,-57.78 233.46,-57.78 122.51,0 131.75,4.63 175.67,73.97 41.61,67.04 46.23,117.89 46.23,439.18l0 365.21 -78.59 0c-120.19,0 -152.56,48.54 -152.56,219.59 0,221.9 -2.31,219.59 473.85,219.59 476.16,0 473.85,2.31 473.85,-219.59 0,-171.05 -32.36,-219.59 -152.55,-219.59l-78.59 0 0 -446.11c0,-501.59 -20.8,-619.47 -138.69,-760.47 -55.48,-67.04 -106.33,-97.09 -224.21,-134.07 -83.21,-25.43 -173.36,-46.23 -203.41,-46.23 -110.95,0 -351.34,92.46 -443.8,173.36 -53.17,43.92 -99.39,80.9 -104.02,80.9 -6.93,0 -53.17,-41.61 -106.33,-92.46 -62.41,-57.79 -141,-104.02 -217.28,-127.13 -150.25,-43.92 -187.23,-43.92 -335.17,9.24l-0.02 0z"/>
   <path class="fil0" d="M8311.69 1169.48c-182.6,39.3 -325.92,117.89 -453.04,251.95 -196.48,205.72 -270.44,386.02 -270.44,665.7 0,272.76 69.34,443.8 261.19,647.21 136.38,143.31 177.98,173.36 312.05,217.28 261.2,87.84 566.31,55.48 730.43,-73.97 48.54,-36.98 60.1,-39.29 60.1,-11.56 0,87.84 62.41,106.33 358.28,106.33 346.72,0 358.28,-6.93 358.28,-219.59 0,-171.05 -32.36,-219.59 -152.56,-219.59l-78.59 0 0 -450.74 0 -450.74 78.59 0c120.19,0 152.56,-48.54 152.56,-219.59 0,-212.66 -9.24,-219.59 -365.21,-219.59 -161.8,0 -307.42,9.24 -325.92,20.8 -25.43,16.18 -25.43,34.67 0,104.02 43.92,122.51 9.24,127.13 -101.7,9.24 -131.75,-141 -349.03,-203.41 -564,-157.18l-0 0zm404.5 494.66c161.8,85.53 242.71,245.01 231.15,453.04 -16.18,282 -157.18,416.07 -439.18,416.07 -265.81,0 -411.44,-159.5 -411.44,-453.05 0,-189.54 71.65,-330.54 203.41,-402.19 104.02,-53.16 323.61,-62.41 416.06,-13.87z"/>
   <path class="fil0" d="M16175.29 1169.48c-337.48,69.34 -600.98,325.92 -693.44,681.88 -43.92,173.35 -43.92,302.8 2.31,480.78 50.85,203.41 101.7,288.93 254.27,434.56 175.67,166.43 344.41,233.46 589.42,238.08 152.55,2.31 191.85,-6.93 323.6,-71.65 80.9,-41.61 152.56,-64.72 154.87,-50.85 27.74,78.59 78.59,90.15 374.46,90.15 360.59,0 369.83,-4.63 369.83,-219.59 0,-171.05 -32.36,-219.59 -152.56,-219.59l-78.59 0 0 -450.74 0 -450.74 78.59 0c120.19,0 152.56,-48.54 152.56,-219.59 0,-214.96 -9.24,-219.59 -369.83,-219.59 -242.7,0 -305.11,6.93 -335.17,36.98 -20.8,23.12 -30.05,55.48 -23.11,80.9 13.87,39.3 0,34.67 -85.53,-23.11 -97.08,-69.34 -325.92,-143.31 -423,-138.69 -25.43,2.31 -87.84,11.56 -138.69,20.8l0 0.02zm439.18 515.46c138.69,78.59 196.47,198.79 196.47,411.44 0,145.62 -9.24,189.54 -53.17,254.26 -90.15,134.07 -187.23,182.61 -358.28,182.61 -288.93,0 -432.24,-152.56 -432.24,-462.3 2.31,-282 154.87,-439.18 427.62,-439.18 87.84,0 154.87,16.18 219.59,53.16l0 0.01z"/>
   <path class="fil0" d="M18692.47 1194.91c-78.59,27.74 -175.67,78.59 -217.28,115.57 -87.84,80.9 -87.84,80.9 -76.28,13.87 20.8,-110.95 -36.98,-131.75 -362.9,-131.75 -360.59,0 -369.83,4.63 -369.83,219.59 0,171.05 32.36,219.59 152.56,219.59l78.59 0 0 450.74 0 450.74 -78.59 0c-120.19,0 -152.56,48.54 -152.56,219.59 0,221.9 -4.63,219.59 485.41,219.59 490.03,0 485.41,2.31 485.41,-219.59 0,-175.67 -32.36,-219.59 -164.11,-219.59l-90.15 0 0 -344.41c0,-312.05 4.63,-349.03 48.54,-404.5 69.34,-87.84 164.11,-129.44 298.18,-129.44 85.53,0 127.13,11.56 161.8,46.23 41.61,41.61 46.23,76.28 46.23,439.18l0 392.95 -78.59 0c-120.19,0 -152.56,48.54 -152.56,219.59 0,221.9 -4.63,219.59 485.41,219.59 490.03,0 485.41,2.31 485.41,-219.59 0,-171.05 -32.36,-219.59 -152.56,-219.59l-78.59 0 4.63 -386.02 6.93 -386.02 92.46 -53.17c99.39,-55.48 282,-71.65 358.28,-30.05 71.66,36.98 92.46,154.87 92.46,510.83l0 344.41 -78.59 0c-120.19,0 -152.56,48.54 -152.56,219.59 0,221.9 -2.31,219.59 473.85,219.59 476.16,0 473.85,2.31 473.85,-219.59 0,-171.05 -32.36,-219.59 -152.56,-219.59l-78.59 0 0 -446.11c0,-520.08 -20.8,-619.47 -166.43,-769.72 -210.34,-219.59 -598.67,-214.96 -855.24,11.56 -46.23,39.29 -87.84,71.65 -92.46,71.65 -6.93,0 -55.48,-39.29 -108.64,-90.15 -64.72,-60.09 -141,-101.7 -228.83,-127.13 -166.43,-46.23 -168.74,-46.23 -342.09,11.56l-0.01 -0.02z"/>
   <path class="fil0" d="M10694.81 1201.84c-39.3,16.18 -99.39,67.04 -134.07,108.64 -57.78,73.97 -60.09,76.28 -48.54,18.49 27.74,-115.57 -25.43,-136.38 -358.28,-136.38 -358.28,0 -369.83,6.93 -369.83,210.34 0,159.5 48.54,228.83 161.8,228.83l69.34 0 0 450.74 0 450.74 -69.34 0c-110.95,0 -161.8,69.34 -161.8,219.59 0,212.66 13.87,219.59 494.65,219.59 480.79,0 476.16,2.31 476.16,-219.59 0,-171.05 -32.36,-219.59 -152.56,-219.59l-78.59 0 0 -388.33c0,-212.66 -6.93,-411.44 -16.18,-443.8 -13.87,-50.85 -6.93,-48.54 60.1,27.74 141,161.8 344.41,166.43 485.41,6.93 129.44,-147.93 117.89,-328.22 -30.05,-471.54 -90.14,-87.84 -219.59,-113.26 -328.22,-62.41l-0 0z"/>
   <path class="fil0" d="M14069.55 1224.95c-76.28,27.74 -171.05,73.97 -210.35,101.7 -187.23,131.75 -330.54,365.21 -376.77,605.61 -34.68,182.6 -30.05,256.57 34.67,459.98 46.23,145.62 83.21,210.35 173.36,309.74 392.94,432.24 1201.96,406.82 1507.07,-46.23 136.37,-201.1 101.7,-261.2 -152.56,-261.2 -150.25,0 -177.98,6.93 -291.24,80.9 -115.57,73.97 -138.69,80.9 -307.42,80.9 -136.38,0 -203.41,-11.56 -272.76,-46.23 -87.84,-46.23 -182.6,-161.8 -182.6,-226.52 0,-20.8 145.62,-27.74 644.9,-27.74 707.31,0 718.87,-2.31 718.87,-136.38 0,-108.64 -90.15,-420.69 -150.25,-522.39 -92.46,-159.49 -288.93,-323.6 -455.36,-379.08 -198.78,-67.04 -487.72,-64.72 -679.57,6.93l0 0.01zm575.55 420.69c80.9,41.61 175.67,143.31 177.98,187.23 0,23.12 -99.39,30.05 -418.37,30.05l-418.38 0 46.23 -76.28c76.28,-120.19 198.79,-177.98 381.39,-177.98 99.39,0 184.92,13.87 231.15,36.98l0 0.01z"/>
   <path class="fil0" d="M11254.18 1229.57c-25.43,25.43 -36.98,80.9 -36.98,182.6 0,171.05 32.36,219.59 152.56,219.59l78.59 0 0 450.74 0 450.74 -78.59 0c-120.19,0 -152.56,48.54 -152.56,219.59 0,221.91 -6.93,219.59 496.96,219.59 503.9,0 496.96,2.31 496.96,-219.59 0,-175.67 -32.36,-219.59 -164.11,-219.59l-90.15 0 0 -633.34c0,-545.51 -4.63,-640.27 -36.98,-670.33 -27.74,-30.05 -92.46,-36.98 -332.85,-36.98 -240.39,0 -305.11,6.93 -332.85,36.98l-0.01 0z"/>
  </g>
 </g>
</svg>
