<?xml version="1.0" encoding="UTF-8"?>
<!DOCTYPE svg PUBLIC "-//W3C//DTD SVG 1.1//EN" "http://www.w3.org/Graphics/SVG/1.1/DTD/svg11.dtd">
<!-- Creator: CorelDRAW 2018 (64-Bit) -->
<svg xmlns="http://www.w3.org/2000/svg" xml:space="preserve" width="25.7633in" height="3.81666in" version="1.1" style="shape-rendering:geometricPrecision; text-rendering:geometricPrecision; image-rendering:optimizeQuality; fill-rule:evenodd; clip-rule:evenodd"
viewBox="0 0 25763.33 3816.66"
 xmlns:xlink="http://www.w3.org/1999/xlink">
 <defs>
  <style type="text/css">
   <![CDATA[
    .fil0 {fill:#074FA3}
   ]]>
  </style>
 </defs>
 <g id="Layer_x0020_1">
  <metadata id="CorelCorpID_0Corel-Layer"/>
  <g id="_2425743482768">
   <path class="fil0" d="M936 356.61c-51.87,7.93 -148.28,42.11 -201.37,72.61 -53.09,30.51 -118.38,87.87 -161.09,142.18 -29.9,37.83 -35.39,46.98 -64.68,106.17 -42.1,86.04 -64.68,225.17 -43.93,278.25 25.02,65.9 103.73,104.35 169.02,82.99 26.24,-9.15 71.39,-51.26 82.99,-78.11 4.88,-10.98 10.98,-43.93 14.65,-73.22 10.98,-103.12 68.95,-189.16 156.21,-230.65 156.82,-75.06 331.95,-9.15 399.68,150.72l14.04 33.56 3.66 579.69c3.66,623.01 3.05,606.54 37.22,765.8 37.83,177.57 121.43,382.59 210.52,515.62 19.53,28.68 42.11,62.85 50.65,75.67 8.54,12.2 34.17,45.76 57.97,74.44 171.47,207.46 380.15,364.9 611.42,460.7 133.02,55.53 238.59,84.81 407.61,113.5 67.12,10.98 347.81,10.98 417.99,-0.61 190.38,-30.51 333.78,-75.67 497.31,-155.6 159.26,-78.72 270.93,-160.48 414.94,-305.1 225.78,-226.39 359.41,-475.96 429.58,-799.97 21.96,-100.07 37.83,-290.46 25.63,-308.15 -5.49,-7.93 -113.5,-9.76 -886.62,-12.81 -947.64,-3.66 -925.06,-2.44 -1115.45,-36 -345.98,-61.63 -601.05,-206.86 -741.39,-424.09 -84.82,-130.58 -125.7,-261.17 -137.91,-441.78 -12.2,-184.89 -49.43,-288.01 -142.78,-394.19 -129.37,-147.06 -319.14,-219.06 -505.86,-191.6l0 0zm878.07 1518.79c101.91,76.88 183.67,120.82 294.12,158.04 173.91,57.97 328.9,78.11 646.81,84.21l190.38 3.66 3.67 18.91c7.93,39.06 48.2,167.81 71.39,229.44 13.43,35.39 43.94,102.51 68.34,149.5 82.38,159.26 169.64,277.03 305.1,411.27 49.43,48.82 89.09,89.09 89.09,90.31 0,4.88 -101.91,50.04 -154.38,68.34 -159.26,55.53 -248.96,70.17 -437.52,70.17 -126.92,0.61 -161.09,-1.83 -225.77,-12.81 -226.39,-39.67 -431.41,-134.85 -616.3,-284.96 -51.26,-41.49 -153.77,-143.4 -173.3,-172.07 -6.71,-10.37 -23.8,-34.17 -37.83,-51.87 -98.85,-129.97 -187.33,-322.8 -223.94,-487.55 -22.57,-100.68 -29.29,-166.58 -34.17,-335.61 -2.44,-82.37 -6.71,-154.38 -9.76,-161.09 -2.44,-6.1 37.22,31.12 89.09,82.38 51.87,51.87 121.43,114.72 154.99,139.74l-0 0zm2352.32 256.89c0,20.14 -23.19,104.96 -45.15,165.98 -65.29,180.62 -175.74,354.53 -311.81,490.6 -37.83,37.83 -73.22,68.95 -78.71,68.95 -17.7,0 -77.5,-48.81 -153.16,-124.48 -134.24,-134.85 -236.76,-291.67 -303.88,-464.97 -21.36,-54.31 -46.99,-133.02 -46.99,-143.4 0,-3.05 197.7,-5.49 469.85,-5.49l469.85 0 0 12.81 0 0z"/>
   <path class="fil0" d="M1899.51 2049.92c-33.56,12.2 -79.94,59.19 -91.53,93.36 -4.88,14.65 -9.15,41.5 -9.15,58.58 0,28.07 -2.44,33.56 -21.96,52.48 -65.9,62.24 -67.12,153.16 -2.44,208.69 68.95,59.19 155.6,47.59 155.6,-20.14 0,-27.46 -18.91,-51.26 -50.04,-64.68 -26.24,-10.98 -28.07,-16.48 -14.04,-34.17 7.32,-9.76 20.75,-17.08 36,-19.52 17.08,-2.44 29.29,-9.76 43.32,-26.24 17.09,-18.91 18.92,-25.63 16.48,-46.37 -1.83,-14.04 -9.76,-30.51 -19.53,-40.27 -26.24,-28.07 -7.32,-50.04 31.12,-36 43.93,15.87 90.31,-14.65 90.31,-59.19 0,-57.36 -89.7,-93.36 -164.14,-66.51l0 0z"/>
   <path class="fil0" d="M2238.17 2160.97c-44.55,17.09 -64.07,29.9 -91.53,60.41 -34.17,37.83 -58.58,91.53 -64.07,136.07 -5.49,48.81 14.65,117.77 44.54,153.16l21.36 25.02 -16.48 34.17c-34.17,72 -42.71,141.57 -24.41,201.98 6.71,24.41 18.3,41.49 43.93,67.73 29.29,29.9 41.49,37.22 76.89,48.2 72.61,22.58 139.74,15.25 171.46,-17.7 26.24,-27.46 24.41,-56.14 -4.88,-82.99 -21.97,-20.75 -23.19,-20.75 -79.33,-20.75 -75.67,0 -83.6,-6.71 -83.6,-68.95 0,-37.83 2.44,-48.2 18.91,-76.27 12.81,-22.58 25.02,-35.39 39.06,-41.5 43.93,-18.3 55.53,-67.73 24.41,-100.07 -9.76,-9.76 -23.19,-19.53 -29.9,-21.36 -32.34,-9.15 -57.97,-23.8 -64.07,-37.22 -15.87,-35.39 -1.83,-100.69 27.46,-125.09 5.49,-4.27 30.51,-9.76 55.53,-12.2 38.44,-3.05 48.2,-6.1 61.63,-20.14 22.58,-21.97 23.19,-62.85 1.83,-85.43 -26.85,-28.68 -79.33,-35.39 -128.75,-17.09l0 0z"/>
   <path class="fil0" d="M2690.94 2177.45c-50.65,10.98 -81.77,29.9 -125.09,75.06 -56.75,59.8 -81.77,129.36 -75.67,211.74 6.1,82.99 34.78,141.57 92.75,187.94 17.7,14.04 36.61,28.07 42.1,31.73 9.15,5.49 8.54,9.76 -3.05,45.76 -18.3,56.75 -21.96,150.11 -8.54,201.37 14.04,53.7 36.61,93.97 71.39,125.09 36,32.34 62.85,45.15 112.28,53.7 69.56,12.2 182.45,-15.87 212.96,-51.87 22.58,-26.85 20.75,-55.53 -5.49,-81.77 -23.8,-23.8 -34.78,-25.02 -87.87,-8.54 -46.38,14.65 -110.45,15.87 -134.85,3.05 -10.37,-4.88 -23.19,-20.74 -31.12,-36.61 -12.2,-25.02 -13.43,-35.39 -10.98,-99.46 2.44,-82.99 10.37,-102.52 56.75,-149.5 26.85,-26.24 28.68,-30.51 25.63,-51.26 -6.1,-37.22 -26.24,-51.26 -78.11,-56.75 -25.63,-2.44 -56.14,-9.76 -69.56,-16.48 -59.8,-31.12 -76.28,-135.46 -31.12,-201.98 21.97,-32.95 48.2,-50.04 87.87,-56.75 35.39,-6.71 68.34,-38.44 68.34,-65.9 0,-21.96 -20.75,-48.2 -46.38,-59.19 -11.59,-4.88 -21.35,-8.54 -21.96,-7.93 -1.22,0 -19.53,4.27 -40.27,8.54l0 0z"/>
   <path class="fil0" d="M3626.37 2245.18c-30.51,10.98 -73.83,52.48 -89.09,84.82 -25.63,54.92 -7.32,138.52 37.83,176.35 69.56,59.19 154.99,55.53 217.23,-9.15 60.41,-63.46 59.19,-153.16 -3.05,-214.79 -45.16,-44.54 -105.57,-57.97 -162.93,-37.22l0 0z"/>
  </g>
  <g id="_2425743478704">
   <path class="fil0" d="M13737.46 185.14c-37.92,37.92 -49.59,102.09 -49.59,291.71 0,329.63 8.75,335.46 393.81,335.46 385.06,0 393.81,-5.83 393.81,-335.46 0,-280.05 -40.84,-355.89 -172.11,-317.97 -40.84,8.75 -87.51,17.51 -105.02,14.59 -282.96,-37.92 -417.15,-35 -460.91,11.67z"/>
   <path class="fil0" d="M15204.77 345.57c-52.51,52.51 -58.35,96.27 -58.35,379.22l0 320.89 -128.35 0c-180.86,0 -221.7,49.59 -221.7,277.13 0,227.54 40.84,277.13 215.87,277.13l125.43 0 14.59 665.1c11.67,583.43 17.5,676.76 70.01,775.95 72.93,151.69 166.27,212.95 361.72,250.87 192.53,37.92 481.32,11.67 539.67,-49.59 61.26,-58.35 58.35,-367.56 -2.92,-428.81 -26.26,-26.26 -93.35,-46.67 -160.44,-46.67 -160.44,0 -172.11,-49.59 -172.11,-659.27l0 -507.57 142.94 0c198.36,0 236.28,-43.76 236.28,-277.13 0,-233.37 -37.92,-277.13 -236.28,-277.13l-142.94 0 0 -332.56c0,-417.14 -5.83,-425.9 -309.21,-425.9 -177.94,0 -227.54,11.67 -274.2,58.35l0 -0.01z"/>
   <path class="fil0" d="M6345.51 1042.76c-81.68,26.26 -204.19,87.51 -268.38,128.35 -110.85,72.93 -119.6,75.84 -119.6,23.33 0,-128.35 -67.09,-148.77 -466.73,-148.77 -455.07,0 -466.73,5.83 -466.73,277.13 0,215.87 40.84,277.13 192.53,277.13l99.18 0 0 568.84 0 568.84 -99.18 0c-151.69,0 -192.53,61.26 -192.53,277.13 0,280.04 -5.84,277.13 612.59,277.13 618.43,0 612.59,2.92 612.59,-277.13 0,-215.87 -40.84,-277.13 -192.53,-277.13l-99.18 0 0 -446.32c0,-487.16 14.59,-533.83 175.03,-618.43 105.02,-55.43 350.05,-55.43 422.98,-2.92 67.09,49.59 96.26,256.7 99.18,723.44l2.92 344.22 -113.76 0c-166.27,0 -207.11,55.43 -207.11,277.13 0,280.04 -5.83,277.13 612.59,277.13 618.43,0 612.59,2.92 612.59,-277.13 0,-215.87 -40.84,-277.13 -192.53,-277.13l-99.18 0 0 -481.32 0 -478.41 125.43 -75.84c96.27,-55.43 169.19,-72.92 294.63,-72.92 154.61,0 166.27,5.83 221.7,93.35 52.51,84.6 58.35,148.78 58.35,554.25l0 460.91 -99.18 0c-151.69,0 -192.53,61.26 -192.53,277.13 0,280.04 -2.92,277.13 598,277.13 600.92,0 598,2.92 598,-277.13 0,-215.87 -40.84,-277.13 -192.53,-277.13l-99.18 0 0 -563c0,-633.02 -26.26,-781.78 -175.03,-959.73 -70.01,-84.6 -134.19,-122.52 -282.95,-169.19 -105.02,-32.09 -218.78,-58.35 -256.7,-58.35 -140.02,0 -443.4,116.68 -560.08,218.78 -67.09,55.43 -125.43,102.1 -131.27,102.1 -8.75,0 -67.09,-52.51 -134.19,-116.69 -78.76,-72.93 -177.94,-131.27 -274.21,-160.44 -189.61,-55.43 -236.28,-55.43 -422.98,11.67l-0.03 0z"/>
   <path class="fil0" d="M9875.21 1016.51c-230.45,49.59 -411.31,148.78 -571.75,317.96 -247.95,259.62 -341.3,487.16 -341.3,840.13 0,344.22 87.51,560.08 329.63,816.79 172.11,180.86 224.62,218.78 393.81,274.2 329.63,110.85 714.69,70.02 921.81,-93.35 61.26,-46.67 75.84,-49.59 75.84,-14.59 0,110.85 78.76,134.19 452.16,134.19 437.57,0 452.15,-8.75 452.15,-277.13 0,-215.87 -40.84,-277.13 -192.52,-277.13l-99.18 0 0 -568.84 0 -568.84 99.18 0c151.69,0 192.52,-61.26 192.52,-277.13 0,-268.38 -11.67,-277.13 -460.9,-277.13 -204.2,0 -387.97,11.67 -411.31,26.25 -32.09,20.42 -32.09,43.76 0,131.27 55.43,154.6 11.67,160.44 -128.35,11.67 -166.27,-177.94 -440.48,-256.7 -711.78,-198.36l-0.01 0.01zm510.49 624.26c204.2,107.94 306.3,309.21 291.71,571.75 -20.41,355.89 -198.36,525.08 -554.25,525.08 -335.46,0 -519.24,-201.28 -519.24,-571.75 0,-239.2 90.43,-417.14 256.7,-507.57 131.27,-67.09 408.4,-78.76 525.08,-17.51z"/>
   <path class="fil0" d="M19799.21 1016.51c-425.9,87.51 -758.45,411.31 -875.13,860.54 -55.43,218.78 -55.43,382.14 2.92,606.76 64.18,256.7 128.35,364.64 320.89,548.41 221.7,210.03 434.65,294.63 743.86,300.46 192.53,2.92 242.13,-8.75 408.4,-90.43 102.1,-52.51 192.53,-81.68 195.44,-64.17 35,99.18 99.18,113.76 472.57,113.76 455.07,0 466.74,-5.84 466.74,-277.13 0,-215.87 -40.84,-277.13 -192.53,-277.13l-99.18 0 0 -568.84 0 -568.84 99.18 0c151.69,0 192.53,-61.26 192.53,-277.13 0,-271.29 -11.67,-277.13 -466.74,-277.13 -306.3,0 -385.06,8.75 -422.98,46.67 -26.26,29.17 -37.92,70.01 -29.17,102.09 17.5,49.59 0,43.76 -107.94,-29.17 -122.52,-87.51 -411.31,-180.86 -533.83,-175.03 -32.09,2.92 -110.85,14.59 -175.03,26.25l0 0.03zm554.25 650.52c175.03,99.18 247.95,250.87 247.95,519.24 0,183.78 -11.67,239.2 -67.09,320.89 -113.76,169.19 -236.29,230.45 -452.16,230.45 -364.63,0 -545.49,-192.53 -545.49,-583.43 2.92,-355.89 195.44,-554.25 539.67,-554.25 110.85,0 195.44,20.41 277.13,67.09l0 0.01z"/>
   <path class="fil0" d="M22975.94 1048.6c-99.18,35 -221.7,99.18 -274.2,145.86 -110.85,102.09 -110.85,102.09 -96.27,17.5 26.25,-140.02 -46.67,-166.27 -457.98,-166.27 -455.07,0 -466.74,5.84 -466.74,277.13 0,215.87 40.84,277.13 192.53,277.13l99.18 0 0 568.84 0 568.84 -99.18 0c-151.69,0 -192.53,61.26 -192.53,277.13 0,280.05 -5.84,277.13 612.59,277.13 618.43,0 612.59,2.92 612.59,-277.13 0,-221.7 -40.84,-277.13 -207.11,-277.13l-113.76 0 0 -434.65c0,-393.81 5.84,-440.48 61.26,-510.49 87.51,-110.85 207.11,-163.36 376.3,-163.36 107.94,0 160.44,14.59 204.2,58.35 52.51,52.51 58.35,96.27 58.35,554.25l0 495.91 -99.18 0c-151.69,0 -192.52,61.26 -192.52,277.13 0,280.05 -5.84,277.13 612.59,277.13 618.43,0 612.59,2.92 612.59,-277.13 0,-215.87 -40.84,-277.13 -192.52,-277.13l-99.18 0 5.84 -487.16 8.75 -487.16 116.69 -67.09c125.43,-70.02 355.89,-90.43 452.15,-37.92 90.43,46.67 116.69,195.44 116.69,644.68l0 434.65 -99.18 0c-151.69,0 -192.53,61.26 -192.53,277.13 0,280.05 -2.92,277.13 598,277.13 600.92,0 598,2.92 598,-277.13 0,-215.87 -40.84,-277.13 -192.53,-277.13l-99.18 0 0 -563c0,-656.35 -26.26,-781.78 -210.03,-971.4 -265.46,-277.13 -755.53,-271.29 -1079.33,14.59 -58.35,49.59 -110.85,90.43 -116.69,90.43 -8.75,0 -70.01,-49.59 -137.11,-113.76 -81.68,-75.84 -177.94,-128.35 -288.8,-160.44 -210.03,-58.35 -212.95,-58.35 -431.73,14.59l-0.01 -0.02z"/>
   <path class="fil0" d="M12882.75 1057.35c-49.59,20.42 -125.43,84.6 -169.19,137.11 -72.93,93.35 -75.85,96.26 -61.26,23.33 35,-145.86 -32.09,-172.11 -452.15,-172.11 -452.16,0 -466.73,8.75 -466.73,265.46 0,201.28 61.26,288.8 204.19,288.8l87.51 0 0 568.84 0 568.84 -87.51 0c-140.02,0 -204.19,87.51 -204.19,277.13 0,268.38 17.5,277.13 624.26,277.13 606.76,0 600.92,2.92 600.92,-277.13 0,-215.87 -40.84,-277.13 -192.52,-277.13l-99.18 0 0 -490.08c0,-268.38 -8.75,-519.24 -20.41,-560.08 -17.51,-64.18 -8.75,-61.26 75.84,35 177.94,204.19 434.65,210.03 612.59,8.75 163.36,-186.7 148.78,-414.22 -37.92,-595.09 -113.77,-110.85 -277.13,-142.94 -414.23,-78.76l-0.01 0z"/>
   <path class="fil0" d="M17141.73 1086.52c-96.27,35 -215.87,93.35 -265.46,128.35 -236.29,166.27 -417.15,460.91 -475.49,764.28 -43.76,230.45 -37.92,323.8 43.76,580.51 58.35,183.78 105.02,265.46 218.78,390.89 495.91,545.5 1516.89,513.41 1901.95,-58.35 172.11,-253.79 128.35,-329.63 -192.53,-329.63 -189.61,0 -224.62,8.75 -367.56,102.1 -145.86,93.35 -175.03,102.1 -387.97,102.1 -172.11,0 -256.7,-14.59 -344.22,-58.35 -110.85,-58.35 -230.45,-204.19 -230.45,-285.87 0,-26.26 183.78,-35 813.87,-35 892.63,0 907.22,-2.92 907.22,-172.11 0,-137.11 -113.76,-530.92 -189.61,-659.27 -116.69,-201.28 -364.64,-408.4 -574.67,-478.41 -250.87,-84.6 -615.51,-81.68 -857.63,8.75l0 0.02zm726.35 530.91c102.09,52.51 221.7,180.86 224.62,236.29 0,29.17 -125.43,37.92 -528,37.92l-528 0 58.35 -96.27c96.27,-151.69 250.87,-224.62 481.32,-224.62 125.43,0 233.37,17.5 291.71,46.67l0 0.01z"/>
   <path class="fil0" d="M13588.69 1092.35c-32.09,32.09 -46.67,102.09 -46.67,230.45 0,215.87 40.84,277.13 192.53,277.13l99.18 0 0 568.84 0 568.84 -99.18 0c-151.69,0 -192.53,61.26 -192.53,277.13 0,280.04 -8.75,277.13 627.18,277.13 635.93,0 627.18,2.92 627.18,-277.13 0,-221.7 -40.84,-277.13 -207.11,-277.13l-113.76 0 0 -799.29c0,-688.44 -5.84,-808.04 -46.67,-845.96 -35,-37.92 -116.69,-46.67 -420.06,-46.67 -303.38,0 -385.06,8.75 -420.06,46.67l-0.01 0z"/>
  </g>
 </g>
</svg>
