<?xml version="1.0" encoding="UTF-8"?>
<!DOCTYPE svg PUBLIC "-//W3C//DTD SVG 1.1//EN" "http://www.w3.org/Graphics/SVG/1.1/DTD/svg11.dtd">
<!-- Creator: CorelDRAW 2018 (64-Bit) -->
<svg xmlns="http://www.w3.org/2000/svg" xml:space="preserve" width="11in" height="5.49995in" version="1.1" style="shape-rendering:geometricPrecision; text-rendering:geometricPrecision; image-rendering:optimizeQuality; fill-rule:evenodd; clip-rule:evenodd"
viewBox="0 0 11000 5499.95"
 xmlns:xlink="http://www.w3.org/1999/xlink">
 <defs>
  <style type="text/css">
   <![CDATA[
    .fil0 {fill:#074FA3}
   ]]>
  </style>
 </defs>
 <g id="Layer_x0020_1">
  <metadata id="CorelCorpID_0Corel-Layer"/>
  <g id="_1460557775024">
   <path class="fil0" d="M3816.41 64.58c-52.65,8.05 -150.51,42.74 -204.4,73.71 -53.89,30.97 -120.16,89.19 -163.52,144.31 -30.35,38.4 -35.92,47.69 -65.65,107.77 -42.74,87.33 -65.65,228.56 -44.59,282.44 25.39,66.89 105.3,105.91 171.57,84.24 26.63,-9.29 72.46,-52.03 84.24,-79.28 4.95,-11.15 11.15,-44.6 14.87,-74.33 11.15,-104.68 69.99,-192.01 158.56,-234.13 159.18,-76.19 336.94,-9.29 405.7,152.99l14.24 34.07 3.72 588.42c3.72,632.39 3.1,615.67 37.78,777.33 38.4,180.24 123.26,388.35 213.69,523.38 19.82,29.11 42.74,63.8 51.41,76.8 8.67,12.39 34.69,46.45 58.84,75.57 174.05,210.59 385.88,370.39 620.63,467.63 135.03,56.37 242.18,86.09 413.75,115.21 68.13,11.15 353.05,11.15 424.28,-0.62 193.25,-30.97 338.8,-76.8 504.8,-157.94 161.66,-79.9 275.01,-162.9 421.19,-309.69 229.17,-229.8 364.82,-483.12 436.05,-812.02 22.3,-101.58 38.4,-294.83 26.02,-312.79 -5.57,-8.05 -115.21,-9.91 -899.97,-13 -961.91,-3.72 -938.99,-2.48 -1132.24,-36.55 -351.19,-62.56 -610.09,-209.97 -752.56,-430.47 -86.09,-132.55 -127.59,-265.1 -139.98,-448.43 -12.39,-187.68 -50.17,-292.35 -144.94,-400.13 -131.31,-149.27 -323.94,-222.36 -513.47,-194.48l0 0zm891.3 1541.65c103.44,78.04 186.43,122.64 298.54,160.42 176.53,58.84 333.85,79.28 656.55,85.47l193.25 3.72 3.72 19.2c8.05,39.64 48.93,170.33 72.47,232.89 13.63,35.93 44.59,104.06 69.37,151.75 83.62,161.66 172.19,281.2 309.69,417.46 50.17,49.55 90.43,90.43 90.43,91.67 0,4.95 -103.44,50.79 -156.7,69.37 -161.66,56.37 -252.71,71.23 -444.1,71.23 -128.83,0.62 -163.52,-1.86 -229.17,-13 -229.79,-40.26 -437.91,-136.89 -625.58,-289.26 -52.03,-42.12 -156.09,-145.56 -175.91,-174.67 -6.81,-10.53 -24.15,-34.69 -38.4,-52.65 -100.34,-131.93 -190.15,-327.66 -227.31,-494.89 -22.92,-102.2 -29.73,-169.09 -34.69,-340.66 -2.48,-83.62 -6.81,-156.7 -9.91,-163.52 -2.48,-6.19 37.78,31.59 90.43,83.62 52.65,52.65 123.26,116.44 157.32,141.84l0 0zm2387.73 260.76c0,20.44 -23.54,106.54 -45.83,168.48 -66.28,183.34 -178.39,359.86 -316.51,497.98 -38.4,38.4 -74.32,69.99 -79.9,69.99 -17.96,0 -78.67,-49.55 -155.47,-126.36 -136.26,-136.88 -240.32,-296.06 -308.45,-471.97 -21.68,-55.12 -47.69,-135.02 -47.69,-145.56 0,-3.09 200.68,-5.57 476.93,-5.57l476.93 0 0 13.01 0 0z"/>
   <path class="fil0" d="M4794.42 1783.37c-34.07,12.39 -81.14,60.08 -92.91,94.76 -4.96,14.87 -9.29,42.12 -9.29,59.46 0,28.49 -2.48,34.07 -22.3,53.27 -66.89,63.18 -68.13,155.47 -2.48,211.83 69.99,60.08 157.94,48.31 157.94,-20.44 0,-27.87 -19.2,-52.03 -50.79,-65.65 -26.63,-11.15 -28.49,-16.72 -14.25,-34.69 7.43,-9.91 21.06,-17.34 36.54,-19.82 17.34,-2.48 29.73,-9.91 43.98,-26.63 17.34,-19.2 19.2,-26.02 16.72,-47.07 -1.86,-14.24 -9.91,-30.97 -19.82,-40.88 -26.63,-28.49 -7.43,-50.79 31.59,-36.54 44.59,16.1 91.67,-14.87 91.67,-60.08 0,-58.22 -91.05,-94.77 -166.61,-67.52l0 0z"/>
   <path class="fil0" d="M5138.18 1896.1c-45.22,17.34 -65.04,30.35 -92.91,61.32 -34.69,38.4 -59.46,92.91 -65.04,138.12 -5.57,49.55 14.87,119.54 45.22,155.46l21.68 25.4 -16.72 34.69c-34.69,73.09 -43.35,143.7 -24.78,205.02 6.81,24.78 18.58,42.12 44.6,68.75 29.73,30.35 42.12,37.78 78.04,48.93 73.71,22.92 141.84,15.48 174.05,-17.96 26.63,-27.87 24.78,-56.99 -4.96,-84.24 -22.3,-21.06 -23.54,-21.06 -80.52,-21.06 -76.8,0 -84.85,-6.81 -84.85,-69.99 0,-38.4 2.48,-48.93 19.2,-77.43 13,-22.92 25.39,-35.92 39.64,-42.12 44.6,-18.58 56.37,-68.75 24.78,-101.58 -9.91,-9.91 -23.54,-19.82 -30.35,-21.68 -32.83,-9.29 -58.84,-24.16 -65.04,-37.78 -16.1,-35.92 -1.85,-102.2 27.87,-126.97 5.57,-4.33 30.97,-9.91 56.36,-12.39 39.02,-3.09 48.93,-6.19 62.56,-20.44 22.92,-22.3 23.54,-63.8 1.86,-86.72 -27.25,-29.11 -80.52,-35.93 -130.69,-17.34l0 0z"/>
   <path class="fil0" d="M5597.76 1912.83c-51.41,11.15 -83,30.35 -126.97,76.19 -57.6,60.7 -83,131.31 -76.8,214.93 6.19,84.24 35.3,143.7 94.15,190.77 17.96,14.25 37.17,28.49 42.74,32.21 9.29,5.57 8.67,9.91 -3.1,46.45 -18.58,57.6 -22.3,152.37 -8.67,204.4 14.25,54.5 37.17,95.39 72.47,126.97 36.55,32.83 63.8,45.83 113.97,54.5 70.61,12.39 185.2,-16.1 216.17,-52.65 22.92,-27.25 21.06,-56.37 -5.57,-83 -24.16,-24.16 -35.3,-25.4 -89.19,-8.67 -47.07,14.87 -112.11,16.1 -136.88,3.1 -10.53,-4.96 -23.54,-21.06 -31.59,-37.17 -12.39,-25.39 -13.63,-35.93 -11.15,-100.96 2.48,-84.24 10.53,-104.06 57.6,-151.75 27.25,-26.63 29.11,-30.97 26.02,-52.03 -6.2,-37.78 -26.63,-52.03 -79.28,-57.6 -26.02,-2.48 -56.98,-9.91 -70.61,-16.72 -60.7,-31.59 -77.42,-137.5 -31.59,-205.02 22.3,-33.45 48.93,-50.79 89.19,-57.6 35.93,-6.81 69.37,-39.02 69.37,-66.89 0,-22.3 -21.06,-48.93 -47.07,-60.08 -11.77,-4.96 -21.68,-8.67 -22.3,-8.06 -1.24,0 -19.82,4.34 -40.88,8.67l0 0z"/>
   <path class="fil0" d="M6547.28 1981.57c-30.97,11.15 -74.94,53.27 -90.43,86.09 -26.02,55.75 -7.43,140.6 38.4,179 70.61,60.08 157.32,56.37 220.5,-9.29 61.32,-64.42 60.08,-155.46 -3.1,-218.02 -45.83,-45.22 -107.15,-58.84 -165.37,-37.78l0 0z"/>
  </g>
  <g id="_1460557770832">
   <path class="fil0" d="M4742.46 3709.28c-19.75,19.75 -25.83,53.17 -25.83,151.92 0,171.67 4.56,174.7 205.09,174.7 200.54,0 205.09,-3.04 205.09,-174.7 0,-145.84 -21.27,-185.34 -89.63,-165.59 -21.27,4.56 -45.57,9.11 -54.69,7.59 -147.36,-19.75 -217.24,-18.23 -240.03,6.07z"/>
   <path class="fil0" d="M5506.61 3792.83c-27.35,27.34 -30.39,50.13 -30.39,197.49l0 167.11 -66.84 0c-94.19,0 -115.46,25.83 -115.46,144.33 0,118.5 21.27,144.32 112.43,144.32l65.32 0 7.59 346.37c6.08,303.84 9.12,352.45 36.46,404.11 37.98,79 86.59,110.9 188.38,130.65 100.26,19.75 250.67,6.07 281.05,-25.83 31.9,-30.39 30.39,-191.42 -1.52,-223.32 -13.67,-13.67 -48.61,-24.31 -83.56,-24.31 -83.56,0 -89.63,-25.83 -89.63,-343.34l0 -264.34 74.44 0c103.31,0 123.06,-22.79 123.06,-144.32 0,-121.54 -19.75,-144.33 -123.06,-144.33l-74.44 0 0 -173.19c0,-217.24 -3.04,-221.8 -161.03,-221.8 -92.67,0 -118.5,6.07 -142.8,30.39l0 -0z"/>
   <path class="fil0" d="M892.81 4155.92c-42.54,13.67 -106.34,45.57 -139.77,66.84 -57.73,37.98 -62.29,39.5 -62.29,12.15 0,-66.84 -34.94,-77.48 -243.07,-77.48 -236.99,0 -243.07,3.04 -243.07,144.32 0,112.43 21.27,144.33 100.26,144.33l51.65 0 0 296.24 0 296.24 -51.65 0c-79,0 -100.26,31.9 -100.26,144.32 0,145.85 -3.04,144.33 319.03,144.33 322.07,0 319.03,1.52 319.03,-144.33 0,-112.42 -21.27,-144.32 -100.27,-144.32l-51.65 0 0 -232.44c0,-253.7 7.59,-278.01 91.15,-322.07 54.69,-28.87 182.3,-28.87 220.28,-1.52 34.94,25.83 50.13,133.69 51.65,376.76l1.52 179.27 -59.24 0c-86.59,0 -107.86,28.87 -107.86,144.32 0,145.85 -3.04,144.33 319.03,144.33 322.07,0 319.03,1.52 319.03,-144.33 0,-112.42 -21.27,-144.32 -100.27,-144.32l-51.65 0 0 -250.67 0 -249.15 65.32 -39.5c50.13,-28.87 88.11,-37.98 153.44,-37.98 80.52,0 86.59,3.04 115.46,48.61 27.34,44.06 30.38,77.48 30.38,288.65l0 240.03 -51.65 0c-79,0 -100.26,31.9 -100.26,144.32 0,145.85 -1.52,144.33 311.43,144.33 312.95,0 311.43,1.52 311.43,-144.33 0,-112.42 -21.27,-144.32 -100.27,-144.32l-51.65 0 0 -293.2c0,-329.67 -13.67,-407.14 -91.15,-499.81 -36.46,-44.06 -69.88,-63.81 -147.36,-88.11 -54.69,-16.71 -113.94,-30.39 -133.69,-30.39 -72.92,0 -230.92,60.77 -291.69,113.94 -34.94,28.87 -65.32,53.17 -68.36,53.17 -4.56,0 -34.94,-27.35 -69.88,-60.77 -41.02,-37.98 -92.67,-68.36 -142.81,-83.56 -98.75,-28.87 -123.06,-28.87 -220.28,6.07l-0.01 0z"/>
   <path class="fil0" d="M2731.04 4142.24c-120.01,25.83 -214.21,77.48 -297.76,165.59 -129.13,135.21 -177.74,253.7 -177.74,437.53 0,179.27 45.57,291.69 171.67,425.38 89.63,94.19 116.98,113.94 205.09,142.8 171.67,57.73 372.2,36.46 480.07,-48.61 31.9,-24.31 39.5,-25.83 39.5,-7.6 0,57.73 41.02,69.89 235.48,69.89 227.88,0 235.48,-4.56 235.48,-144.33 0,-112.42 -21.27,-144.32 -100.27,-144.32l-51.65 0 0 -296.24 0 -296.24 51.65 0c79,0 100.27,-31.9 100.27,-144.33 0,-139.77 -6.08,-144.32 -240.04,-144.32 -106.34,0 -202.05,6.08 -214.21,13.67 -16.71,10.63 -16.71,22.79 0,68.36 28.87,80.52 6.08,83.56 -66.84,6.08 -86.59,-92.67 -229.4,-133.69 -370.69,-103.31l-0 0zm265.86 325.11c106.34,56.21 159.52,161.04 151.92,297.76 -10.63,185.34 -103.31,273.46 -288.65,273.46 -174.71,0 -270.42,-104.83 -270.42,-297.76 0,-124.57 47.09,-217.24 133.69,-264.34 68.36,-34.94 212.69,-41.02 273.45,-9.12z"/>
   <path class="fil0" d="M7899.34 4142.24c-221.8,45.57 -394.99,214.21 -455.76,448.16 -28.87,113.94 -28.87,199.02 1.52,315.99 33.42,133.69 66.84,189.9 167.11,285.61 115.46,109.38 226.36,153.44 387.39,156.48 100.26,1.52 126.09,-4.56 212.69,-47.09 53.17,-27.35 100.27,-42.54 101.79,-33.42 18.23,51.65 51.65,59.25 246.11,59.25 236.99,0 243.07,-3.04 243.07,-144.33 0,-112.42 -21.27,-144.32 -100.26,-144.32l-51.65 0 0 -296.24 0 -296.24 51.65 0c79,0 100.26,-31.9 100.26,-144.33 0,-141.28 -6.07,-144.32 -243.07,-144.32 -159.52,0 -200.54,4.56 -220.29,24.31 -13.67,15.19 -19.75,36.46 -15.19,53.17 9.12,25.83 0,22.79 -56.21,-15.19 -63.81,-45.57 -214.21,-94.19 -278.01,-91.15 -16.71,1.52 -57.73,7.6 -91.15,13.67l0 0.01zm288.65 338.78c91.15,51.65 129.13,130.65 129.13,270.41 0,95.71 -6.07,124.58 -34.94,167.11 -59.25,88.11 -123.06,120.02 -235.48,120.02 -189.9,0 -284.09,-100.26 -284.09,-303.84 1.52,-185.34 101.79,-288.65 281.05,-288.65 57.73,0 101.79,10.63 144.33,34.94l0 0z"/>
   <path class="fil0" d="M9553.75 4158.96c-51.65,18.23 -115.46,51.65 -142.81,75.96 -57.73,53.17 -57.73,53.17 -50.13,9.12 13.67,-72.92 -24.3,-86.59 -238.51,-86.59 -236.99,0 -243.07,3.04 -243.07,144.33 0,112.42 21.27,144.32 100.27,144.32l51.65 0 0 296.24 0 296.24 -51.65 0c-79,0 -100.27,31.9 -100.27,144.32 0,145.85 -3.04,144.33 319.03,144.33 322.07,0 319.03,1.52 319.03,-144.33 0,-115.46 -21.27,-144.32 -107.86,-144.32l-59.24 0 0 -226.36c0,-205.09 3.04,-229.4 31.9,-265.86 45.57,-57.73 107.86,-85.07 195.97,-85.07 56.21,0 83.56,7.59 106.34,30.39 27.35,27.35 30.39,50.13 30.39,288.65l0 258.26 -51.65 0c-79,0 -100.27,31.9 -100.27,144.32 0,145.85 -3.04,144.33 319.03,144.33 322.07,0 319.03,1.52 319.03,-144.33 0,-112.42 -21.27,-144.32 -100.26,-144.32l-51.65 0 3.04 -253.7 4.56 -253.71 60.77 -34.94c65.32,-36.46 185.34,-47.09 235.48,-19.75 47.09,24.3 60.77,101.78 60.77,335.74l0 226.36 -51.65 0c-79,0 -100.27,31.9 -100.27,144.32 0,145.85 -1.52,144.33 311.43,144.33 312.96,0 311.43,1.52 311.43,-144.33 0,-112.42 -21.27,-144.32 -100.26,-144.32l-51.65 0 0 -293.2c0,-341.82 -13.67,-407.14 -109.38,-505.89 -138.25,-144.33 -393.47,-141.28 -562.11,7.59 -30.39,25.83 -57.73,47.09 -60.76,47.09 -4.56,0 -36.46,-25.82 -71.41,-59.25 -42.54,-39.5 -92.67,-66.84 -150.4,-83.56 -109.38,-30.39 -110.9,-30.39 -224.84,7.6l-0 -0.01z"/>
   <path class="fil0" d="M4297.33 4163.52c-25.83,10.63 -65.32,44.06 -88.11,71.4 -37.98,48.61 -39.5,50.14 -31.9,12.15 18.23,-75.96 -16.71,-89.63 -235.48,-89.63 -235.48,0 -243.07,4.56 -243.07,138.25 0,104.83 31.9,150.4 106.34,150.4l45.57 0 0 296.24 0 296.24 -45.57 0c-72.92,0 -106.34,45.57 -106.34,144.32 0,139.77 9.11,144.33 325.1,144.33 316,0 312.96,1.52 312.96,-144.33 0,-112.42 -21.27,-144.32 -100.27,-144.32l-51.65 0 0 -255.22c0,-139.77 -4.56,-270.42 -10.63,-291.69 -9.11,-33.42 -4.56,-31.9 39.5,18.23 92.67,106.34 226.36,109.38 319.03,4.56 85.08,-97.23 77.48,-215.72 -19.75,-309.92 -59.25,-57.73 -144.32,-74.44 -215.72,-41.02l-0 0z"/>
   <path class="fil0" d="M6515.36 4178.71c-50.13,18.23 -112.42,48.61 -138.25,66.84 -123.06,86.59 -217.24,240.03 -247.63,398.03 -22.79,120.01 -19.75,168.63 22.79,302.32 30.39,95.71 54.69,138.25 113.94,203.57 258.26,284.09 789.98,267.38 990.52,-30.39 89.63,-132.17 66.84,-171.67 -100.27,-171.67 -98.75,0 -116.98,4.56 -191.42,53.17 -75.96,48.62 -91.15,53.17 -202.05,53.17 -89.63,0 -133.69,-7.6 -179.27,-30.39 -57.73,-30.39 -120.01,-106.34 -120.01,-148.88 0,-13.67 95.71,-18.23 423.85,-18.23 464.87,0 472.47,-1.52 472.47,-89.63 0,-71.4 -59.24,-276.49 -98.75,-343.34 -60.77,-104.83 -189.9,-212.69 -299.28,-249.15 -130.65,-44.06 -320.55,-42.54 -446.65,4.56l0 0.01zm378.28 276.49c53.17,27.35 115.46,94.19 116.98,123.06 0,15.19 -65.32,19.75 -274.98,19.75l-274.98 0 30.39 -50.14c50.14,-79 130.65,-116.98 250.67,-116.98 65.33,0 121.54,9.11 151.92,24.3l0 0z"/>
   <path class="fil0" d="M4664.98 4181.74c-16.71,16.71 -24.31,53.17 -24.31,120.01 0,112.43 21.27,144.33 100.27,144.33l51.65 0 0 296.24 0 296.24 -51.65 0c-79,0 -100.27,31.9 -100.27,144.32 0,145.85 -4.56,144.33 326.63,144.33 331.19,0 326.63,1.52 326.63,-144.33 0,-115.46 -21.27,-144.32 -107.86,-144.32l-59.24 0 0 -416.26c0,-358.53 -3.04,-420.81 -24.31,-440.57 -18.23,-19.75 -60.77,-24.31 -218.76,-24.31 -158,0 -200.54,4.56 -218.76,24.31l-0 0z"/>
  </g>
 </g>
</svg>
