<?xml version="1.0" encoding="UTF-8"?>
<!DOCTYPE svg PUBLIC "-//W3C//DTD SVG 1.1//EN" "http://www.w3.org/Graphics/SVG/1.1/DTD/svg11.dtd">
<!-- Creator: CorelDRAW 2018 (64-Bit) -->
<svg xmlns="http://www.w3.org/2000/svg" xml:space="preserve" width="8.5in" height="11in" version="1.1" style="shape-rendering:geometricPrecision; text-rendering:geometricPrecision; image-rendering:optimizeQuality; fill-rule:evenodd; clip-rule:evenodd"
viewBox="0 0 8500 11000"
 xmlns:xlink="http://www.w3.org/1999/xlink">
 <defs>
  <style type="text/css">
   <![CDATA[
    .fil0 {fill:#074FA3}
   ]]>
  </style>
 </defs>
 <g id="Layer_x0020_1">
  <metadata id="CorelCorpID_0Corel-Layer"/>
  <g id="_2425732894496">
   <g>
    <path class="fil0" d="M1872.39 1904.56c-73,11.16 -208.7,59.26 -283.42,102.2 -74.72,42.94 -166.61,123.67 -226.73,200.11 -42.08,53.25 -49.81,66.13 -91.04,149.44 -59.26,121.1 -91.04,316.91 -61.84,391.63 35.21,92.76 146,146.86 237.9,116.8 36.93,-12.88 100.48,-72.14 116.8,-109.93 6.87,-15.46 15.46,-61.83 20.61,-103.06 15.46,-145.14 97.05,-266.24 219.86,-324.64 220.72,-105.64 467.2,-12.88 562.54,212.13l19.76 47.24 5.15 815.9c5.15,876.87 4.3,853.69 52.39,1077.84 53.25,249.92 170.91,538.49 296.3,725.72 27.48,40.37 59.26,88.46 71.29,106.5 12.02,17.18 48.09,64.41 81.59,104.78 241.34,292 535.06,513.59 860.56,648.42 187.23,78.16 335.8,119.38 573.7,159.75 94.47,15.46 489.54,15.46 588.3,-0.86 267.96,-42.94 469.78,-106.49 699.96,-219 224.16,-110.79 381.32,-225.87 584.01,-429.42 317.77,-318.63 505.86,-669.9 604.63,-1125.94 30.92,-140.85 53.25,-408.8 36.07,-433.71 -7.73,-11.17 -159.74,-13.74 -1247.89,-18.04 -1333.78,-5.15 -1302,-3.43 -1569.96,-50.67 -486.96,-86.74 -845.96,-291.15 -1043.49,-596.9 -119.38,-183.79 -176.92,-367.58 -194.1,-621.8 -17.18,-260.23 -69.57,-405.37 -200.97,-554.81 -182.07,-206.98 -449.17,-308.32 -711.98,-269.67l0 0zm1235.87 2137.65c143.43,108.21 258.51,170.05 413.96,222.44 244.77,81.59 462.92,109.93 910.37,118.52l267.96 5.15 5.16 26.62c11.16,54.97 67.85,236.18 100.48,322.93 18.9,49.81 61.84,144.28 96.19,210.42 115.94,224.15 238.76,389.91 429.42,578.85 69.57,68.71 125.39,125.39 125.39,127.11 0,6.87 -143.43,70.43 -217.29,96.19 -224.16,78.15 -350.41,98.76 -615.79,98.76 -178.64,0.86 -226.73,-2.57 -317.77,-18.04 -318.63,-55.82 -607.2,-189.8 -867.43,-401.07 -72.14,-58.4 -216.43,-201.83 -243.91,-242.19 -9.45,-14.6 -33.5,-48.09 -53.25,-73 -139.13,-182.93 -263.67,-454.33 -315.19,-686.21 -31.78,-141.71 -41.22,-234.46 -48.09,-472.36 -3.44,-115.94 -9.45,-217.29 -13.74,-226.73 -3.43,-8.59 52.39,43.8 125.39,115.94 73,73 170.91,161.46 218.15,196.67l-0 0zm3310.83 361.57c0,28.34 -32.64,147.72 -63.56,233.6 -91.9,254.22 -247.35,498.99 -438.87,690.51 -53.25,53.25 -103.06,97.05 -110.79,97.05 -24.91,0 -109.07,-68.7 -215.57,-175.2 -188.94,-189.8 -333.23,-410.52 -427.7,-654.43 -30.06,-76.44 -66.13,-187.23 -66.13,-201.83 0,-4.29 278.26,-7.73 661.3,-7.73l661.31 0 0 18.04 0 0z"/>
    <path class="fil0" d="M3228.5 4287.84c-47.24,17.18 -112.51,83.31 -128.83,131.4 -6.87,20.61 -12.89,58.4 -12.89,82.45 0,39.51 -3.43,47.24 -30.92,73.86 -92.75,87.6 -94.47,215.57 -3.43,293.72 97.05,83.3 219,66.99 219,-28.34 0,-38.65 -26.63,-72.14 -70.43,-91.04 -36.93,-15.46 -39.51,-23.19 -19.76,-48.09 10.31,-13.74 29.2,-24.05 50.67,-27.48 24.05,-3.43 41.22,-13.74 60.98,-36.93 24.05,-26.62 26.62,-36.07 23.19,-65.27 -2.57,-19.75 -13.74,-42.94 -27.48,-56.68 -36.93,-39.51 -10.3,-70.43 43.8,-50.67 61.83,22.33 127.11,-20.61 127.11,-83.3 0,-80.73 -126.25,-131.41 -231.03,-93.61l0 -0z"/>
    <path class="fil0" d="M3705.15 4444.15c-62.7,24.05 -90.18,42.08 -128.83,85.02 -48.09,53.25 -82.45,128.83 -90.18,191.52 -7.73,68.71 20.61,165.76 62.69,215.57l30.06 35.21 -23.19 48.1c-48.09,101.34 -60.12,199.25 -34.35,284.28 9.44,34.35 25.76,58.4 61.83,95.33 41.22,42.09 58.4,52.39 108.21,67.85 102.2,31.78 196.67,21.47 241.33,-24.91 36.93,-38.65 34.35,-79.01 -6.87,-116.8 -30.92,-29.2 -32.63,-29.2 -111.65,-29.2 -106.5,0 -117.67,-9.45 -117.67,-97.05 0,-53.25 3.44,-67.85 26.63,-107.35 18.04,-31.78 35.21,-49.81 54.96,-58.4 61.84,-25.76 78.16,-95.33 34.35,-140.85 -13.74,-13.74 -32.64,-27.48 -42.08,-30.06 -45.52,-12.88 -81.59,-33.49 -90.18,-52.39 -22.33,-49.81 -2.57,-141.71 38.65,-176.06 7.73,-6.01 42.94,-13.74 78.15,-17.18 54.11,-4.3 67.85,-8.59 86.74,-28.34 31.78,-30.92 32.64,-88.46 2.57,-120.24 -37.79,-40.37 -111.65,-49.81 -181.21,-24.05l0 0.01z"/>
    <path class="fil0" d="M4342.41 4467.34c-71.29,15.46 -115.09,42.08 -176.06,105.64 -79.87,84.17 -115.08,182.07 -106.5,298.02 8.59,116.8 48.95,199.25 130.54,264.52 24.91,19.75 51.53,39.51 59.26,44.66 12.89,7.73 12.03,13.74 -4.29,64.41 -25.76,79.87 -30.92,211.27 -12.02,283.42 19.75,75.58 51.53,132.26 100.48,176.06 50.67,45.52 88.46,63.56 158.02,75.57 97.91,17.18 256.8,-22.33 299.74,-73 31.78,-37.79 29.2,-78.16 -7.73,-115.09 -33.49,-33.49 -48.95,-35.21 -123.67,-12.02 -65.27,20.61 -155.45,22.33 -189.8,4.3 -14.6,-6.87 -32.64,-29.2 -43.8,-51.53 -17.18,-35.21 -18.9,-49.81 -15.46,-139.99 3.44,-116.8 14.6,-144.28 79.87,-210.41 37.79,-36.93 40.37,-42.94 36.07,-72.14 -8.59,-52.39 -36.93,-72.14 -109.93,-79.87 -36.07,-3.43 -79.02,-13.74 -97.91,-23.19 -84.17,-43.8 -107.35,-190.66 -43.8,-284.27 30.92,-46.38 67.85,-70.43 123.67,-79.87 49.81,-9.44 96.19,-54.11 96.19,-92.75 0,-30.92 -29.2,-67.85 -65.27,-83.31 -16.32,-6.87 -30.06,-12.02 -30.92,-11.17 -1.72,0 -27.48,6.01 -56.68,12.02l0 0z"/>
    <path class="fil0" d="M5659.01 4562.67c-42.94,15.46 -103.92,73.86 -125.39,119.38 -36.07,77.3 -10.31,194.96 53.25,248.2 97.91,83.3 218.15,78.15 305.74,-12.89 85.03,-89.32 83.31,-215.57 -4.29,-302.31 -63.56,-62.7 -148.58,-81.59 -229.31,-52.39l0 0z"/>
    <path class="fil0" d="M4157.76 7172.68c-11.16,11.16 -14.6,30.06 -14.6,85.88 0,97.05 2.57,98.77 115.94,98.77 113.37,0 115.94,-1.72 115.94,-98.77 0,-82.45 -12.02,-104.78 -50.67,-93.61 -12.02,2.58 -25.76,5.15 -30.92,4.3 -83.3,-11.17 -122.81,-10.3 -135.7,3.44z"/>
    <path class="fil0" d="M4589.75 7219.91c-15.46,15.46 -17.18,28.34 -17.18,111.65l0 94.47 -37.79 0c-53.25,0 -65.27,14.6 -65.27,81.59 0,66.99 12.02,81.59 63.56,81.59l36.93 0 4.3 195.81c3.43,171.77 5.15,199.25 20.61,228.45 21.47,44.66 48.95,62.7 106.5,73.86 56.68,11.17 141.71,3.43 158.89,-14.6 18.04,-17.18 17.18,-108.22 -0.86,-126.25 -7.73,-7.73 -27.48,-13.74 -47.24,-13.74 -47.24,0 -50.67,-14.6 -50.67,-194.09l0 -149.44 42.08 0c58.4,0 69.57,-12.88 69.57,-81.59 0,-68.71 -11.17,-81.59 -69.57,-81.59l-42.08 0 0 -97.91c0,-122.81 -1.72,-125.39 -91.04,-125.39 -52.39,0 -66.99,3.43 -80.73,17.18l0 -0z"/>
    <path class="fil0" d="M1981.46 7425.18c-24.05,7.73 -60.12,25.76 -79.02,37.79 -32.64,21.47 -35.21,22.33 -35.21,6.87 0,-37.79 -19.75,-43.8 -137.41,-43.8 -133.98,0 -137.41,1.72 -137.41,81.59 0,63.56 12.02,81.59 56.69,81.59l29.2 0 0 167.48 0 167.47 -29.2 0c-44.66,0 -56.69,18.04 -56.69,81.59 0,82.45 -1.72,81.59 180.36,81.59 182.07,0 180.35,0.86 180.35,-81.59 0,-63.56 -12.02,-81.59 -56.69,-81.59l-29.2 0 0 -131.4c0,-143.43 4.3,-157.17 51.53,-182.07 30.92,-16.32 103.06,-16.32 124.53,-0.86 19.75,14.6 28.34,75.57 29.2,212.99l0.86 101.34 -33.5 0c-48.95,0 -60.98,16.32 -60.98,81.59 0,82.45 -1.72,81.59 180.35,81.59 182.07,0 180.36,0.86 180.36,-81.59 0,-63.56 -12.02,-81.59 -56.69,-81.59l-29.2 0 0 -141.71 0 -140.85 36.93 -22.33c28.34,-16.32 49.81,-21.47 86.74,-21.47 45.52,0 48.95,1.72 65.27,27.48 15.46,24.91 17.18,43.8 17.18,163.18l0 135.7 -29.2 0c-44.66,0 -56.68,18.04 -56.68,81.59 0,82.45 -0.86,81.59 176.06,81.59 176.92,0 176.06,0.86 176.06,-81.59 0,-63.56 -12.03,-81.59 -56.69,-81.59l-29.2 0 0 -165.76c0,-186.37 -7.73,-230.17 -51.53,-282.56 -20.61,-24.91 -39.51,-36.07 -83.31,-49.81 -30.92,-9.45 -64.41,-17.18 -75.58,-17.18 -41.22,0 -130.54,34.35 -164.89,64.41 -19.76,16.32 -36.93,30.06 -38.65,30.06 -2.57,0 -19.75,-15.46 -39.51,-34.35 -23.19,-21.47 -52.39,-38.65 -80.73,-47.24 -55.83,-16.32 -69.57,-16.32 -124.53,3.44l-0.01 0z"/>
    <path class="fil0" d="M3020.65 7417.45c-67.85,14.6 -121.09,43.8 -168.33,93.61 -73,76.43 -100.48,143.43 -100.48,247.34 0,101.35 25.76,164.9 97.05,240.48 50.67,53.25 66.13,64.41 115.94,80.73 97.05,32.63 210.42,20.61 271.39,-27.48 18.04,-13.74 22.33,-14.6 22.33,-4.3 0,32.64 23.19,39.51 133.12,39.51 128.83,0 133.12,-2.57 133.12,-81.59 0,-63.56 -12.02,-81.59 -56.68,-81.59l-29.2 0 0 -167.47 0 -167.48 29.2 0c44.66,0 56.68,-18.04 56.68,-81.59 0,-79.01 -3.43,-81.59 -135.7,-81.59 -60.12,0 -114.22,3.43 -121.09,7.73 -9.45,6.01 -9.45,12.88 0,38.65 16.32,45.52 3.43,47.24 -37.79,3.44 -48.95,-52.39 -129.68,-75.58 -209.56,-58.4l-0 0zm150.3 183.79c60.11,31.78 90.18,91.04 85.88,168.33 -6.01,104.78 -58.4,154.59 -163.18,154.59 -98.77,0 -152.87,-59.26 -152.87,-168.33 0,-70.43 26.62,-122.81 75.57,-149.44 38.65,-19.75 120.24,-23.19 154.59,-5.15z"/>
    <path class="fil0" d="M5942.43 7417.45c-125.39,25.76 -223.3,121.09 -257.65,253.35 -16.31,64.41 -16.31,112.51 0.86,178.64 18.89,75.58 37.79,107.35 94.47,161.46 65.27,61.83 127.97,86.74 219,88.46 56.68,0.86 71.28,-2.57 120.24,-26.62 30.06,-15.46 56.69,-24.05 57.54,-18.89 10.3,29.2 29.2,33.49 139.13,33.49 133.98,0 137.41,-1.72 137.41,-81.59 0,-63.56 -12.02,-81.59 -56.68,-81.59l-29.2 0 0 -167.48 0 -167.47 29.2 0c44.66,0 56.68,-18.04 56.68,-81.59 0,-79.87 -3.43,-81.59 -137.41,-81.59 -90.18,0 -113.37,2.57 -124.53,13.74 -7.73,8.59 -11.17,20.61 -8.59,30.06 5.15,14.6 0,12.88 -31.78,-8.59 -36.07,-25.76 -121.1,-53.25 -157.17,-51.53 -9.45,0.86 -32.64,4.3 -51.53,7.73l0 0.01zm163.18 191.52c51.53,29.2 73,73.86 73,152.87 0,54.11 -3.44,70.43 -19.76,94.47 -33.49,49.81 -69.56,67.85 -133.12,67.85 -107.35,0 -160.6,-56.68 -160.6,-171.77 0.86,-104.78 57.54,-163.18 158.89,-163.18 32.63,0 57.54,6.01 81.59,19.76l0 0z"/>
    <path class="fil0" d="M6877.7 7426.89c-29.2,10.31 -65.27,29.2 -80.73,42.94 -32.64,30.06 -32.64,30.06 -28.34,5.15 7.73,-41.22 -13.74,-48.95 -134.83,-48.95 -133.98,0 -137.41,1.72 -137.41,81.59 0,63.56 12.02,81.59 56.68,81.59l29.2 0 0 167.48 0 167.47 -29.2 0c-44.66,0 -56.68,18.04 -56.68,81.59 0,82.45 -1.72,81.59 180.35,81.59 182.07,0 180.35,0.86 180.35,-81.59 0,-65.27 -12.02,-81.59 -60.98,-81.59l-33.49 0 0 -127.96c0,-115.94 1.72,-129.69 18.03,-150.3 25.76,-32.63 60.98,-48.09 110.79,-48.09 31.78,0 47.24,4.3 60.12,17.18 15.46,15.46 17.18,28.34 17.18,163.18l0 146 -29.2 0c-44.66,0 -56.68,18.04 -56.68,81.59 0,82.45 -1.72,81.59 180.35,81.59 182.07,0 180.35,0.86 180.35,-81.59 0,-63.56 -12.02,-81.59 -56.68,-81.59l-29.2 0 1.72 -143.43 2.57 -143.43 34.35 -19.76c36.93,-20.61 104.78,-26.62 133.12,-11.16 26.62,13.74 34.35,57.54 34.35,189.8l0 127.96 -29.2 0c-44.66,0 -56.69,18.04 -56.69,81.59 0,82.45 -0.86,81.59 176.06,81.59 176.92,0 176.06,0.86 176.06,-81.59 0,-63.56 -12.02,-81.59 -56.68,-81.59l-29.2 0 0 -165.75c0,-193.24 -7.73,-230.17 -61.83,-286 -78.15,-81.59 -222.44,-79.87 -317.77,4.3 -17.18,14.6 -32.64,26.62 -34.35,26.62 -2.57,0 -20.61,-14.6 -40.37,-33.49 -24.05,-22.33 -52.39,-37.79 -85.02,-47.24 -61.84,-17.18 -62.7,-17.18 -127.11,4.3l0 -0.01z"/>
    <path class="fil0" d="M3906.12 7429.47c-14.6,6.01 -36.93,24.91 -49.81,40.37 -21.47,27.48 -22.33,28.34 -18.04,6.87 10.3,-42.94 -9.45,-50.67 -133.12,-50.67 -133.12,0 -137.41,2.57 -137.41,78.15 0,59.26 18.04,85.03 60.12,85.03l25.76 0 0 167.47 0 167.48 -25.76 0c-41.22,0 -60.12,25.76 -60.12,81.59 0,79.01 5.15,81.59 183.79,81.59 178.64,0 176.92,0.86 176.92,-81.59 0,-63.56 -12.03,-81.59 -56.69,-81.59l-29.2 0 0 -144.29c0,-79.01 -2.57,-152.87 -6.01,-164.89 -5.15,-18.9 -2.57,-18.04 22.33,10.3 52.39,60.12 127.97,61.84 180.36,2.57 48.09,-54.96 43.8,-121.95 -11.17,-175.2 -33.5,-32.64 -81.59,-42.08 -121.95,-23.19l-0 0z"/>
    <path class="fil0" d="M5160.02 7438.06c-28.34,10.31 -63.56,27.48 -78.15,37.79 -69.57,48.96 -122.81,135.7 -139.99,225.02 -12.89,67.85 -11.17,95.33 12.88,170.91 17.18,54.11 30.92,78.15 64.41,115.08 146,160.6 446.59,151.16 559.96,-17.18 50.67,-74.72 37.79,-97.05 -56.68,-97.05 -55.83,0 -66.13,2.58 -108.21,30.06 -42.94,27.48 -51.53,30.06 -114.22,30.06 -50.67,0 -75.58,-4.3 -101.34,-17.18 -32.64,-17.18 -67.85,-60.12 -67.85,-84.17 0,-7.73 54.11,-10.31 239.62,-10.31 262.8,0 267.1,-0.86 267.1,-50.67 0,-40.37 -33.49,-156.31 -55.83,-194.1 -34.35,-59.26 -107.35,-120.24 -169.19,-140.85 -73.86,-24.91 -181.22,-24.05 -252.5,2.57l0 0zm213.85 156.31c30.06,15.46 65.27,53.25 66.13,69.57 0,8.59 -36.93,11.17 -155.45,11.17l-155.45 0 17.18 -28.34c28.34,-44.66 73.86,-66.13 141.71,-66.13 36.93,0 68.71,5.15 85.89,13.74l0 0z"/>
    <path class="fil0" d="M4113.96 7439.78c-9.45,9.45 -13.74,30.06 -13.74,67.85 0,63.56 12.02,81.59 56.68,81.59l29.2 0 0 167.48 0 167.47 -29.2 0c-44.66,0 -56.68,18.04 -56.68,81.59 0,82.45 -2.57,81.59 184.65,81.59 187.23,0 184.65,0.86 184.65,-81.59 0,-65.27 -12.02,-81.59 -60.98,-81.59l-33.5 0 0 -235.32c0,-202.69 -1.72,-237.9 -13.74,-249.07 -10.3,-11.17 -34.35,-13.74 -123.67,-13.74 -89.32,0 -113.37,2.57 -123.67,13.74l0 0z"/>
   </g>
  </g>
 </g>
</svg>
