<?xml version="1.0" encoding="UTF-8"?>
<!DOCTYPE svg PUBLIC "-//W3C//DTD SVG 1.1//EN" "http://www.w3.org/Graphics/SVG/1.1/DTD/svg11.dtd">
<!-- Creator: CorelDRAW 2018 (64-Bit) -->
<svg xmlns="http://www.w3.org/2000/svg" xml:space="preserve" width="14.4298in" height="3.81666in" version="1.1" style="shape-rendering:geometricPrecision; text-rendering:geometricPrecision; image-rendering:optimizeQuality; fill-rule:evenodd; clip-rule:evenodd"
viewBox="0 0 14429.81 3816.66"
 xmlns:xlink="http://www.w3.org/1999/xlink">
 <defs>
  <style type="text/css">
   <![CDATA[
    .fil0 {fill:#074FA3}
   ]]>
  </style>
 </defs>
 <g id="Layer_x0020_1">
  <metadata id="CorelCorpID_0Corel-Layer"/>
  <g id="_2425734372976">
   <path class="fil0" d="M654.23 160.5c-51.87,7.93 -148.28,42.11 -201.37,72.61 -53.09,30.51 -118.38,87.87 -161.09,142.18 -29.9,37.83 -35.39,46.98 -64.68,106.17 -42.1,86.04 -64.68,225.17 -43.93,278.25 25.02,65.9 103.73,104.35 169.02,82.99 26.24,-9.15 71.39,-51.26 82.99,-78.11 4.88,-10.98 10.98,-43.93 14.65,-73.22 10.98,-103.12 68.95,-189.16 156.21,-230.65 156.82,-75.06 331.95,-9.15 399.68,150.72l14.04 33.56 3.66 579.69c3.66,623.01 3.05,606.54 37.22,765.8 37.83,177.57 121.43,382.59 210.52,515.62 19.53,28.68 42.11,62.85 50.65,75.67 8.54,12.2 34.17,45.76 57.97,74.44 171.47,207.46 380.15,364.9 611.42,460.7 133.02,55.53 238.59,84.81 407.61,113.5 67.12,10.98 347.81,10.98 417.99,-0.61 190.38,-30.51 333.78,-75.67 497.31,-155.6 159.26,-78.72 270.93,-160.48 414.94,-305.1 225.78,-226.39 359.41,-475.96 429.58,-799.97 21.96,-100.07 37.83,-290.46 25.63,-308.15 -5.49,-7.93 -113.5,-9.76 -886.62,-12.81 -947.64,-3.66 -925.06,-2.44 -1115.45,-36 -345.98,-61.63 -601.05,-206.86 -741.39,-424.09 -84.82,-130.58 -125.7,-261.17 -137.91,-441.78 -12.2,-184.89 -49.43,-288.01 -142.78,-394.19 -129.37,-147.06 -319.14,-219.06 -505.86,-191.6l0 0zm878.07 1518.79c101.91,76.88 183.67,120.82 294.12,158.04 173.91,57.97 328.9,78.11 646.81,84.21l190.38 3.66 3.67 18.91c7.93,39.06 48.2,167.81 71.39,229.44 13.43,35.39 43.94,102.51 68.34,149.5 82.38,159.26 169.64,277.03 305.1,411.27 49.43,48.82 89.09,89.09 89.09,90.31 0,4.88 -101.91,50.04 -154.38,68.34 -159.26,55.53 -248.96,70.17 -437.52,70.17 -126.92,0.61 -161.09,-1.83 -225.77,-12.81 -226.39,-39.67 -431.41,-134.85 -616.3,-284.96 -51.26,-41.49 -153.77,-143.4 -173.3,-172.07 -6.71,-10.37 -23.8,-34.17 -37.83,-51.87 -98.85,-129.97 -187.33,-322.8 -223.94,-487.55 -22.57,-100.68 -29.29,-166.58 -34.17,-335.61 -2.44,-82.37 -6.71,-154.38 -9.76,-161.09 -2.44,-6.1 37.22,31.12 89.09,82.38 51.87,51.87 121.43,114.72 154.99,139.74l-0 0zm2352.32 256.89c0,20.14 -23.19,104.96 -45.15,165.98 -65.29,180.62 -175.74,354.53 -311.81,490.6 -37.83,37.83 -73.22,68.95 -78.71,68.95 -17.7,0 -77.5,-48.81 -153.16,-124.48 -134.24,-134.85 -236.76,-291.67 -303.88,-464.97 -21.36,-54.31 -46.99,-133.02 -46.99,-143.4 0,-3.05 197.7,-5.49 469.85,-5.49l469.85 0 0 12.81 0 0z"/>
   <path class="fil0" d="M1617.74 1853.8c-33.56,12.2 -79.94,59.19 -91.53,93.36 -4.88,14.65 -9.15,41.5 -9.15,58.58 0,28.07 -2.44,33.56 -21.96,52.48 -65.9,62.24 -67.12,153.16 -2.44,208.69 68.95,59.19 155.6,47.59 155.6,-20.14 0,-27.46 -18.91,-51.26 -50.04,-64.68 -26.24,-10.98 -28.07,-16.48 -14.04,-34.17 7.32,-9.76 20.75,-17.08 36,-19.52 17.08,-2.44 29.29,-9.76 43.32,-26.24 17.09,-18.91 18.92,-25.63 16.48,-46.37 -1.83,-14.04 -9.76,-30.51 -19.53,-40.27 -26.24,-28.07 -7.32,-50.04 31.12,-36 43.93,15.87 90.31,-14.65 90.31,-59.19 0,-57.36 -89.7,-93.36 -164.14,-66.51l0 0z"/>
   <path class="fil0" d="M1956.4 1964.86c-44.55,17.09 -64.07,29.9 -91.53,60.41 -34.17,37.83 -58.58,91.53 -64.07,136.07 -5.49,48.81 14.65,117.77 44.54,153.16l21.36 25.02 -16.48 34.17c-34.17,72 -42.71,141.57 -24.41,201.98 6.71,24.41 18.3,41.49 43.93,67.73 29.29,29.9 41.49,37.22 76.89,48.2 72.61,22.58 139.74,15.25 171.46,-17.7 26.24,-27.46 24.41,-56.14 -4.88,-82.99 -21.97,-20.75 -23.19,-20.75 -79.33,-20.75 -75.67,0 -83.6,-6.71 -83.6,-68.95 0,-37.83 2.44,-48.2 18.91,-76.27 12.81,-22.58 25.02,-35.39 39.06,-41.5 43.93,-18.3 55.53,-67.73 24.41,-100.07 -9.76,-9.76 -23.19,-19.53 -29.9,-21.36 -32.34,-9.15 -57.97,-23.8 -64.07,-37.22 -15.87,-35.39 -1.83,-100.69 27.46,-125.09 5.49,-4.27 30.51,-9.76 55.53,-12.2 38.44,-3.05 48.2,-6.1 61.63,-20.14 22.58,-21.97 23.19,-62.85 1.83,-85.43 -26.85,-28.68 -79.33,-35.39 -128.75,-17.09l0 0z"/>
   <path class="fil0" d="M2409.17 1981.33c-50.65,10.98 -81.77,29.9 -125.09,75.06 -56.75,59.8 -81.77,129.36 -75.67,211.74 6.1,82.99 34.78,141.57 92.75,187.94 17.7,14.04 36.61,28.07 42.1,31.73 9.15,5.49 8.54,9.76 -3.05,45.76 -18.3,56.75 -21.96,150.11 -8.54,201.37 14.04,53.7 36.61,93.97 71.39,125.09 36,32.34 62.85,45.15 112.28,53.7 69.56,12.2 182.45,-15.87 212.96,-51.87 22.58,-26.85 20.75,-55.53 -5.49,-81.77 -23.8,-23.8 -34.78,-25.02 -87.87,-8.54 -46.38,14.65 -110.45,15.87 -134.85,3.05 -10.37,-4.88 -23.19,-20.74 -31.12,-36.61 -12.2,-25.02 -13.43,-35.39 -10.98,-99.46 2.44,-82.99 10.37,-102.52 56.75,-149.5 26.85,-26.24 28.68,-30.51 25.63,-51.26 -6.1,-37.22 -26.24,-51.26 -78.11,-56.75 -25.63,-2.44 -56.14,-9.76 -69.56,-16.48 -59.8,-31.12 -76.28,-135.46 -31.12,-201.98 21.97,-32.95 48.2,-50.04 87.87,-56.75 35.39,-6.71 68.34,-38.44 68.34,-65.9 0,-21.96 -20.75,-48.2 -46.38,-59.19 -11.59,-4.88 -21.35,-8.54 -21.96,-7.93 -1.22,0 -19.53,4.27 -40.27,8.54l0 0z"/>
   <path class="fil0" d="M3344.6 2049.07c-30.51,10.98 -73.83,52.48 -89.09,84.82 -25.63,54.92 -7.32,138.52 37.83,176.35 69.56,59.19 154.99,55.53 217.23,-9.15 60.41,-63.46 59.19,-153.16 -3.05,-214.79 -45.16,-44.54 -105.57,-57.97 -162.93,-37.22l0 0z"/>
  </g>
  <g id="_2425737249136">
   <path class="fil0" d="M8663.11 886.81c-18.11,18.11 -23.69,48.77 -23.69,139.36 0,157.48 4.18,160.26 188.13,160.26 183.96,0 188.14,-2.79 188.14,-160.26 0,-133.79 -19.51,-170.02 -82.22,-151.9 -19.51,4.18 -41.81,8.36 -50.17,6.97 -135.18,-18.12 -199.28,-16.72 -220.19,5.57z"/>
   <path class="fil0" d="M9364.08 963.46c-25.08,25.09 -27.87,45.99 -27.87,181.17l0 153.3 -61.32 0c-86.4,0 -105.91,23.69 -105.91,132.39 0,108.7 19.51,132.39 103.13,132.39l59.92 0 6.97 317.74c5.57,278.72 8.36,323.31 33.45,370.7 34.83,72.46 79.43,101.73 172.8,119.85 91.98,18.11 229.94,5.57 257.81,-23.69 29.26,-27.87 27.87,-175.59 -1.39,-204.85 -12.54,-12.54 -44.59,-22.3 -76.65,-22.3 -76.65,0 -82.22,-23.69 -82.22,-314.95l0 -242.48 68.29 0c94.76,0 112.88,-20.91 112.88,-132.39 0,-111.49 -18.12,-132.39 -112.88,-132.39l-68.29 0 0 -158.87c0,-199.28 -2.79,-203.47 -147.72,-203.47 -85.01,0 -108.7,5.57 -131,27.87l0 -0z"/>
   <path class="fil0" d="M5131.74 1296.53c-39.02,12.54 -97.55,41.81 -128.21,61.32 -52.96,34.83 -57.14,36.23 -57.14,11.15 0,-61.31 -32.05,-71.07 -222.97,-71.07 -217.4,0 -222.97,2.79 -222.97,132.39 0,103.13 19.51,132.39 91.97,132.39l47.38 0 0 271.75 0 271.76 -47.38 0c-72.46,0 -91.97,29.26 -91.97,132.39 0,133.79 -2.79,132.39 292.65,132.39 295.44,0 292.65,1.39 292.65,-132.39 0,-103.13 -19.51,-132.39 -91.98,-132.39l-47.38 0 0 -213.22c0,-232.73 6.97,-255.03 83.62,-295.44 50.17,-26.48 167.23,-26.48 202.07,-1.39 32.06,23.69 45.99,122.63 47.38,345.61l1.39 164.45 -54.35 0c-79.43,0 -98.94,26.48 -98.94,132.39 0,133.79 -2.79,132.39 292.65,132.39 295.44,0 292.66,1.39 292.66,-132.39 0,-103.13 -19.51,-132.39 -91.98,-132.39l-47.38 0 0 -229.94 0 -228.55 59.92 -36.23c45.99,-26.48 80.83,-34.84 140.76,-34.84 73.86,0 79.43,2.79 105.91,44.6 25.08,40.41 27.87,71.07 27.87,264.78l0 220.19 -47.38 0c-72.46,0 -91.98,29.26 -91.98,132.39 0,133.79 -1.39,132.39 285.69,132.39 287.08,0 285.69,1.39 285.69,-132.39 0,-103.13 -19.51,-132.39 -91.97,-132.39l-47.38 0 0 -268.96c0,-302.41 -12.54,-373.48 -83.62,-458.49 -33.45,-40.42 -64.11,-58.54 -135.18,-80.83 -50.17,-15.33 -104.52,-27.87 -122.63,-27.87 -66.89,0 -211.83,55.74 -267.57,104.52 -32.06,26.48 -59.93,48.78 -62.71,48.78 -4.18,0 -32.06,-25.09 -64.11,-55.74 -37.63,-34.84 -85.01,-62.71 -131,-76.65 -90.58,-26.48 -112.88,-26.48 -202.07,5.57l-0.01 0z"/>
   <path class="fil0" d="M6817.98 1283.98c-110.09,23.69 -196.5,71.07 -273.14,151.91 -118.45,124.03 -163.05,232.73 -163.05,401.35 0,164.44 41.81,267.57 157.48,390.21 82.22,86.4 107.31,104.52 188.14,131 157.48,52.96 341.43,33.45 440.37,-44.59 29.27,-22.3 36.24,-23.69 36.24,-6.97 0,52.96 37.63,64.11 216.01,64.11 209.04,0 216.01,-4.18 216.01,-132.39 0,-103.13 -19.51,-132.39 -91.98,-132.39l-47.38 0 0 -271.76 0 -271.75 47.38 0c72.46,0 91.98,-29.26 91.98,-132.39 0,-128.21 -5.57,-132.39 -220.19,-132.39 -97.55,0 -185.35,5.57 -196.5,12.54 -15.33,9.75 -15.33,20.91 0,62.71 26.48,73.86 5.57,76.65 -61.32,5.57 -79.43,-85.01 -210.43,-122.64 -340.04,-94.77l-0 0zm243.88 298.23c97.55,51.56 146.33,147.72 139.36,273.14 -9.75,170.02 -94.76,250.85 -264.78,250.85 -160.26,0 -248.06,-96.16 -248.06,-273.15 0,-114.28 43.2,-199.28 122.63,-242.48 62.71,-32.05 195.11,-37.63 250.85,-8.36z"/>
   <path class="fil0" d="M11559 1283.98c-203.46,41.81 -362.33,196.5 -418.07,411.11 -26.48,104.52 -26.48,182.56 1.39,289.87 30.66,122.63 61.31,174.2 153.3,261.99 105.91,100.34 207.65,140.76 355.37,143.54 91.98,1.4 115.67,-4.18 195.1,-43.2 48.78,-25.08 91.98,-39.02 93.37,-30.66 16.72,47.38 47.38,54.35 225.76,54.35 217.4,0 222.97,-2.79 222.97,-132.39 0,-103.13 -19.51,-132.39 -91.97,-132.39l-47.38 0 0 -271.76 0 -271.75 47.38 0c72.46,0 91.97,-29.26 91.97,-132.39 0,-129.6 -5.57,-132.39 -222.97,-132.39 -146.33,0 -183.96,4.18 -202.07,22.3 -12.54,13.94 -18.12,33.45 -13.94,48.78 8.36,23.69 0,20.91 -51.56,-13.94 -58.54,-41.81 -196.5,-86.4 -255.03,-83.62 -15.33,1.4 -52.96,6.97 -83.62,12.54l0 0.01zm264.78 310.78c83.62,47.38 118.46,119.85 118.46,248.06 0,87.8 -5.57,114.28 -32.06,153.3 -54.35,80.83 -112.88,110.09 -216.01,110.09 -174.2,0 -260.6,-91.98 -260.6,-278.72 1.39,-170.02 93.37,-264.78 257.81,-264.78 52.96,0 93.37,9.76 132.39,32.06l0 0z"/>
   <path class="fil0" d="M13076.62 1299.31c-47.38,16.72 -105.91,47.38 -131,69.68 -52.96,48.78 -52.96,48.78 -45.99,8.36 12.54,-66.89 -22.3,-79.43 -218.8,-79.43 -217.4,0 -222.97,2.79 -222.97,132.39 0,103.13 19.51,132.39 91.98,132.39l47.38 0 0 271.75 0 271.76 -47.38 0c-72.46,0 -91.98,29.26 -91.98,132.39 0,133.79 -2.79,132.39 292.65,132.39 295.44,0 292.65,1.39 292.65,-132.39 0,-105.91 -19.51,-132.39 -98.94,-132.39l-54.35 0 0 -207.65c0,-188.13 2.79,-210.43 29.26,-243.88 41.81,-52.96 98.94,-78.04 179.77,-78.04 51.56,0 76.65,6.97 97.55,27.87 25.08,25.09 27.87,45.99 27.87,264.78l0 236.91 -47.38 0c-72.46,0 -91.98,29.26 -91.98,132.39 0,133.79 -2.79,132.39 292.65,132.39 295.44,0 292.65,1.39 292.65,-132.39 0,-103.13 -19.51,-132.39 -91.98,-132.39l-47.38 0 2.79 -232.73 4.18 -232.73 55.74 -32.05c59.93,-33.45 170.02,-43.2 216.01,-18.12 43.2,22.3 55.74,93.37 55.74,307.98l0 207.65 -47.38 0c-72.46,0 -91.98,29.26 -91.98,132.39 0,133.79 -1.39,132.39 285.69,132.39 287.08,0 285.69,1.39 285.69,-132.39 0,-103.13 -19.51,-132.39 -91.98,-132.39l-47.38 0 0 -268.96c0,-313.56 -12.54,-373.48 -100.34,-464.07 -126.81,-132.39 -360.94,-129.6 -515.63,6.97 -27.87,23.69 -52.96,43.2 -55.74,43.2 -4.18,0 -33.44,-23.69 -65.5,-54.35 -39.02,-36.23 -85.01,-61.31 -137.96,-76.65 -100.34,-27.87 -101.73,-27.87 -206.25,6.97l-0 -0.01z"/>
   <path class="fil0" d="M8254.78 1303.5c-23.69,9.75 -59.93,40.42 -80.83,65.5 -34.84,44.59 -36.24,45.99 -29.27,11.15 16.72,-69.68 -15.33,-82.22 -216.01,-82.22 -216.01,0 -222.97,4.18 -222.97,126.82 0,96.16 29.26,137.96 97.55,137.96l41.8 0 0 271.75 0 271.76 -41.8 0c-66.89,0 -97.55,41.8 -97.55,132.39 0,128.21 8.36,132.39 298.23,132.39 289.87,0 287.08,1.39 287.08,-132.39 0,-103.13 -19.51,-132.39 -91.98,-132.39l-47.38 0 0 -234.13c0,-128.21 -4.18,-248.06 -9.75,-267.57 -8.36,-30.66 -4.18,-29.26 36.23,16.72 85.01,97.55 207.65,100.34 292.65,4.18 78.04,-89.19 71.07,-197.89 -18.11,-284.3 -54.35,-52.96 -132.39,-68.28 -197.89,-37.63l-0 0z"/>
   <path class="fil0" d="M10289.43 1317.43c-45.99,16.72 -103.13,44.59 -126.82,61.32 -112.88,79.43 -199.28,220.19 -227.15,365.12 -20.91,110.09 -18.12,154.69 20.9,277.33 27.87,87.8 50.17,126.81 104.52,186.74 236.91,260.6 724.67,245.27 908.63,-27.87 82.22,-121.24 61.31,-157.48 -91.98,-157.48 -90.59,0 -107.31,4.18 -175.59,48.78 -69.68,44.59 -83.62,48.77 -185.35,48.77 -82.22,0 -122.63,-6.97 -164.44,-27.87 -52.96,-27.87 -110.09,-97.55 -110.09,-136.57 0,-12.54 87.8,-16.72 388.81,-16.72 426.44,0 433.41,-1.39 433.41,-82.22 0,-65.5 -54.35,-253.64 -90.59,-314.96 -55.74,-96.16 -174.2,-195.1 -274.54,-228.55 -119.85,-40.41 -294.05,-39.02 -409.72,4.18l0 0.01zm347 253.63c48.78,25.09 105.91,86.41 107.31,112.88 0,13.94 -59.93,18.12 -252.24,18.12l-252.24 0 27.87 -45.99c45.99,-72.46 119.85,-107.31 229.94,-107.31 59.93,0 111.49,8.37 139.36,22.3l0 0z"/>
   <path class="fil0" d="M8592.03 1320.22c-15.33,15.33 -22.3,48.78 -22.3,110.09 0,103.13 19.51,132.39 91.98,132.39l47.38 0 0 271.75 0 271.76 -47.38 0c-72.46,0 -91.98,29.26 -91.98,132.39 0,133.79 -4.18,132.39 299.62,132.39 303.81,0 299.62,1.39 299.62,-132.39 0,-105.91 -19.51,-132.39 -98.94,-132.39l-54.35 0 0 -381.85c0,-328.89 -2.79,-386.02 -22.3,-404.15 -16.72,-18.11 -55.74,-22.3 -200.68,-22.3 -144.93,0 -183.95,4.18 -200.68,22.3l-0 0z"/>
  </g>
 </g>
</svg>
